<?xml version="1.0"?>
<svg xmlns="http://www.w3.org/2000/svg" version="1.1" style="display: block;" viewBox="0 0 2048 1365" preserveAspectRatio="xMidYMid meet">
  <defs>
    <linearGradient id="Gradient1" gradientUnits="userSpaceOnUse" x1="166.795" y1="808.725" x2="178.632" y2="738.85">
      <stop class="stop0" offset="0" stop-opacity="1" stop-color="rgb(255,253,207)"/>
      <stop class="stop1" offset="1" stop-opacity="1" stop-color="rgb(248,241,225)"/>
    </linearGradient>
    <linearGradient id="Gradient2" gradientUnits="userSpaceOnUse" x1="1562.03" y1="506.322" x2="1518.5" y2="588.722">
      <stop class="stop0" offset="0" stop-opacity="1" stop-color="rgb(255,254,210)"/>
      <stop class="stop1" offset="1" stop-opacity="1" stop-color="rgb(252,243,227)"/>
    </linearGradient>
    <linearGradient id="Gradient3" gradientUnits="userSpaceOnUse" x1="1797.84" y1="743.57" x2="1775.67" y2="825.939">
      <stop class="stop0" offset="0" stop-opacity="1" stop-color="rgb(124,152,172)"/>
      <stop class="stop1" offset="1" stop-opacity="1" stop-color="rgb(194,204,203)"/>
    </linearGradient>
    <linearGradient id="Gradient4" gradientUnits="userSpaceOnUse" x1="1823.26" y1="789.041" x2="1795.7" y2="827.126">
      <stop class="stop0" offset="0" stop-opacity="1" stop-color="rgb(0,6,23)"/>
      <stop class="stop1" offset="1" stop-opacity="1" stop-color="rgb(14,32,64)"/>
    </linearGradient>
    <linearGradient id="Gradient5" gradientUnits="userSpaceOnUse" x1="1790.7" y1="901.282" x2="1762.04" y2="871.123">
      <stop class="stop0" offset="0" stop-opacity="1" stop-color="rgb(0,5,23)"/>
      <stop class="stop1" offset="1" stop-opacity="1" stop-color="rgb(9,24,53)"/>
    </linearGradient>
    <linearGradient id="Gradient6" gradientUnits="userSpaceOnUse" x1="1818.19" y1="892.473" x2="1762.72" y2="807.518">
      <stop class="stop0" offset="0" stop-opacity="1" stop-color="rgb(255,252,225)"/>
      <stop class="stop1" offset="1" stop-opacity="1" stop-color="rgb(237,236,239)"/>
    </linearGradient>
    <linearGradient id="Gradient7" gradientUnits="userSpaceOnUse" x1="1428.75" y1="676.51" x2="1431.32" y2="705.328">
      <stop class="stop0" offset="0" stop-opacity="1" stop-color="rgb(246,0,1)"/>
      <stop class="stop1" offset="1" stop-opacity="1" stop-color="rgb(208,1,6)"/>
    </linearGradient>
    <linearGradient id="Gradient8" gradientUnits="userSpaceOnUse" x1="1008.29" y1="915.103" x2="983.975" y2="867.847">
      <stop class="stop0" offset="0" stop-opacity="1" stop-color="rgb(0,0,15)"/>
      <stop class="stop1" offset="1" stop-opacity="1" stop-color="rgb(26,47,81)"/>
    </linearGradient>
    <linearGradient id="Gradient9" gradientUnits="userSpaceOnUse" x1="1072.07" y1="756.339" x2="1005.12" y2="850.18">
      <stop class="stop0" offset="0" stop-opacity="1" stop-color="rgb(115,143,163)"/>
      <stop class="stop1" offset="1" stop-opacity="1" stop-color="rgb(181,193,196)"/>
    </linearGradient>
    <linearGradient id="Gradient10" gradientUnits="userSpaceOnUse" x1="1084.9" y1="861.311" x2="1039.86" y2="860.712">
      <stop class="stop0" offset="0" stop-opacity="1" stop-color="rgb(0,10,34)"/>
      <stop class="stop1" offset="1" stop-opacity="1" stop-color="rgb(30,44,76)"/>
    </linearGradient>
    <linearGradient id="Gradient11" gradientUnits="userSpaceOnUse" x1="1078.49" y1="805.838" x2="1042.94" y2="834.628">
      <stop class="stop0" offset="0" stop-opacity="1" stop-color="rgb(0,6,25)"/>
      <stop class="stop1" offset="1" stop-opacity="1" stop-color="rgb(14,33,66)"/>
    </linearGradient>
    <linearGradient id="Gradient12" gradientUnits="userSpaceOnUse" x1="1547.59" y1="736.165" x2="1559.99" y2="735.748">
      <stop class="stop0" offset="0" stop-opacity="1" stop-color="rgb(0,0,0)"/>
      <stop class="stop1" offset="1" stop-opacity="1" stop-color="rgb(24,11,40)"/>
    </linearGradient>
    <linearGradient id="Gradient13" gradientUnits="userSpaceOnUse" x1="949.151" y1="716.045" x2="943.928" y2="709.034">
      <stop class="stop0" offset="0" stop-opacity="1" stop-color="rgb(254,245,249)"/>
      <stop class="stop1" offset="1" stop-opacity="1" stop-color="rgb(255,249,216)"/>
    </linearGradient>
  </defs>
  <path transform="translate(0,0)" fill="rgb(0,10,29)" d="M 1144.46 421.541 C 1175.18 373.388 1197.05 340.074 1256.66 326.939 C 1334.9 309.7 1420.8 340.032 1438.89 425.376 C 1440.34 432.171 1441.24 438.946 1442.19 445.81 C 1462.54 454.343 1483.51 461.807 1503.78 470.342 C 1570.11 498.265 1634.43 527.241 1694.37 567.632 C 1757.89 568.413 1802.19 572.185 1860.18 601.963 C 1874.72 609.43 1888.76 618.801 1902.55 625.861 C 1937.87 615.792 1966.65 615.165 1976.6 657.624 C 1994.39 733.573 1990.13 837.269 1910.14 876.731 C 1902.79 880.356 1896.69 883.491 1888.66 885.947 C 1877.14 922.061 1865.5 943.166 1831.43 963.138 L 1880.42 965.161 C 1875.88 969.143 1872.85 965.552 1865.75 973.061 C 1864.3 978.729 1868.41 979.826 1873.4 980.835 C 1827.09 985.327 1771.56 986.674 1724.61 988.388 C 1636.09 991.473 1547.55 993.988 1459 995.933 C 1331.09 999.835 1203.16 1002.85 1075.21 1004.97 C 922.416 1005.64 769.625 1003.9 616.89 999.739 C 496.772 997.01 376.679 993.254 256.625 988.473 C 224.912 987.278 189.713 986.228 158.316 981.181 C 154.12 980.506 152.586 979.43 148.053 979.917 L 147.431 979.367 C 163.618 970.34 259.447 965.945 283.266 964.892 C 265.399 956.085 257.705 940.29 249.066 923.457 C 206.259 915.076 137.781 894.273 116.966 852.418 C 84.0185 786.167 139.859 707.27 189.21 666.171 C 196.109 660.425 205.156 652.818 213.036 648.598 C 261.09 607.962 351.999 580.129 414.627 583.983 C 470.416 580.713 538.175 587.809 593.634 594.821 C 609.348 596.808 633.801 600.191 648.472 605.309 C 673.081 600.017 698.632 596.278 723.407 591.754 C 733.638 589.885 750.977 588.031 760.149 585.448 C 776.264 566.709 801.204 540.417 819.279 522.194 C 847.929 493.309 880.256 454.678 913.615 432.707 C 925.901 424.615 942.261 422.207 956.618 421.174 C 1019.28 416.663 1081.81 419.424 1144.46 421.541 z M 1419.94 955.615 C 1490.62 957.108 1562.89 959.349 1633.41 960.125 C 1622.38 951.735 1616.44 942.888 1609.13 931.272 C 1608.63 930.488 1604.43 930.908 1603.54 931.029 C 1602.18 931.217 1600.83 931.42 1599.47 931.638 C 1532.1 937.766 1463.16 941.1 1395.76 947.411 C 1393.44 947.629 1386.28 952.956 1383.93 954.635 C 1395.34 955.145 1409.05 954.866 1419.94 955.615 z M 690.173 951.856 C 679.516 950.346 643.869 950.881 631.867 951.108 C 608.991 950.993 586.118 950.571 563.253 949.842 C 539.339 949.253 514.861 946.873 491.986 952.886 C 569.557 955.114 647.07 952.546 724.694 953.91 C 737.217 954.13 837.924 955.055 841.687 952.831 C 835.152 951.412 803.033 951.911 794.255 951.904 L 690.173 951.856 z M 1117.96 954.099 C 1136.74 954.79 1156.39 954.573 1175.25 954.599 C 1179.54 954.587 1190 954.961 1192.93 951.866 C 1185.76 945.636 1152.56 946.605 1142.73 947.203 C 1142 947.253 1141.27 947.313 1140.54 947.384 C 1129.88 948.296 1127.32 948.974 1117.96 954.099 z"/>
  <path transform="translate(0,0)" fill="rgb(7,7,20)" d="M 213.036 648.598 C 261.09 607.962 351.999 580.129 414.627 583.983 C 412.599 585.731 395.849 586.229 392.213 586.203 C 393.95 587.544 393.873 587.419 396.045 587.876 C 386.305 587.8 377.627 587.057 367.902 588.297 C 362.597 588.973 348.073 594.263 344.496 593.769 L 343.437 592.062 C 337.866 592.741 331.04 596.272 325.597 597.701 C 324.602 597.962 324.71 596.032 320.456 597.108 L 323.244 598.335 C 314.454 603.753 301.713 603.861 288.722 609.306 L 289.148 609.364 C 274.729 616.012 260.976 621.687 246.746 628.912 C 238.866 632.913 218.223 648.88 213.036 648.598 z"/>
  <path transform="translate(0,0)" fill="rgb(218,0,5)" d="M 1172.29 548.625 C 1191.9 558.221 1210.86 575.626 1222.73 593.863 C 1234.72 612.292 1238.23 623.644 1233.98 644.738 C 1227.08 643.33 1216.24 639.92 1209.18 637.919 L 1210.94 630.522 C 1210.43 626.19 1211.16 621.595 1206.37 621.26 L 1203.54 623.8 L 1202.59 622.264 C 1202.1 623.273 1199.45 632.906 1198.96 634.604 C 1178.4 628.421 1156.41 620.596 1135.81 615.28 C 1094.57 604.644 1041.91 594.745 999.335 592.741 C 973.61 593.657 948.787 593.125 922.717 596.862 C 882.753 602.59 840.519 616.077 802.396 629.201 C 782.423 636.076 766.075 648.68 744.479 655.714 L 744.724 657.369 C 760.626 656.975 794.907 642.289 812.72 636.667 C 838.084 628.508 863.87 621.728 889.967 616.353 C 972.662 600.042 1058.67 607.8 1139.97 628.198 C 1166.38 634.822 1201.23 648.958 1226.98 652.753 C 1229 653.653 1229.1 653.61 1230.86 655.127 L 1233.47 673.219 L 1234.4 678.27 C 1263.13 683.713 1284.06 685.308 1313.36 687.437 C 1313.74 690.324 1314.09 693.349 1314.54 696.212 C 1316.05 701.984 1317.12 707.222 1318.28 713.047 L 1320.17 724.011 L 1321.06 728.427 C 1323.44 745.501 1327.12 775.698 1325.01 793.107 L 1325.21 796.505 L 1323.82 820.999 C 1321.56 835.62 1319 857.724 1314.36 871.049 C 1312.7 874.82 1310.81 883.148 1308.98 888.168 C 1305.22 899.449 1294.8 918.296 1286.85 926.714 C 1280.52 933.413 1241.44 931.928 1231.71 931.946 L 1160.78 932.065 C 1175.99 908.579 1181.59 898.259 1185.5 870.582 C 1188.22 854.447 1188.29 841.312 1188.28 824.97 C 1187.52 815.39 1186.06 803.473 1183.9 794.163 C 1183.56 793.3 1183.49 792.947 1183.32 792.031 C 1167.93 709.906 1094.78 662.176 1013.09 679.381 C 1002.15 682.904 993.367 685.613 983.016 690.765 C 979.12 693.11 971.132 697.621 967.844 700.228 C 963.617 705.301 955.681 710.261 950.302 715.307 C 925.906 738.189 910.913 761.816 901.677 794.555 C 898.871 805.459 896.942 815.882 894.849 826.918 C 893.471 835.281 892.697 852.307 889.895 858.458 C 875.885 886.644 863.771 908.708 831.965 919.541 C 803.703 929.167 717.969 924.54 683.864 924.176 C 593.4 923.909 502.954 921.588 412.596 917.213 C 376.519 915.464 190.842 908.185 172.853 881.655 C 158.52 878.573 135.547 858.757 133.556 843.599 C 134.808 839.737 134.85 840.63 138.609 837.718 C 134.606 830.566 127.782 822.293 126.164 814.505 C 126.346 813.896 126.527 813.286 126.709 812.677 C 133.226 812.316 149.075 812.178 154.735 811.192 C 174.149 807.811 191.574 799.154 207.157 787.076 C 231.368 767.755 252.818 741.492 270.616 716.209 C 286.52 693.617 279.528 656.295 248.413 652.92 C 233.471 650.548 219.067 661.772 206.72 669.752 C 213.931 661.802 227.581 652.254 236.639 646.147 C 325.823 586.025 425.7 590.941 527.975 598.813 C 556.385 600.999 600.482 605 628.441 610.871 C 581.169 619.383 531.604 629.709 486.31 645.58 C 474.634 649.671 461.331 653.845 450.528 659.701 C 510.657 642.098 562.328 634.203 622.664 622.085 C 767.161 593.063 902.721 565.721 1050.62 590.044 C 1101.12 598.35 1137.1 609.512 1185.08 623.981 C 1178.96 610.995 1171.27 600.28 1160.11 591.199 L 1154.92 598.98 C 1148.72 596.332 1142.42 594.088 1136.1 591.767 C 1140.41 573.521 1154.7 555.559 1172.29 548.625 z"/>
  <path transform="translate(0,0)" fill="rgb(254,253,208)" d="M 1172.29 548.625 C 1191.9 558.221 1210.86 575.626 1222.73 593.863 C 1234.72 612.292 1238.23 623.644 1233.98 644.738 C 1227.08 643.33 1216.24 639.92 1209.18 637.919 L 1210.94 630.522 C 1210.43 626.19 1211.16 621.595 1206.37 621.26 L 1203.54 623.8 L 1202.59 622.264 C 1202.1 623.273 1199.45 632.906 1198.96 634.604 C 1178.4 628.421 1156.41 620.596 1135.81 615.28 C 1094.57 604.644 1041.91 594.745 999.335 592.741 C 973.61 593.657 948.787 593.125 922.717 596.862 C 882.753 602.59 840.519 616.077 802.396 629.201 C 782.423 636.076 766.075 648.68 744.479 655.714 L 744.724 657.369 C 760.626 656.975 794.907 642.289 812.72 636.667 C 838.084 628.508 863.87 621.728 889.967 616.353 C 972.662 600.042 1058.67 607.8 1139.97 628.198 C 1166.38 634.822 1201.23 648.958 1226.98 652.753 C 1229 653.653 1229.1 653.61 1230.86 655.127 L 1233.47 673.219 L 1232.75 677.483 L 1230.12 678.635 L 1229.32 676.785 C 1204.86 668.509 1179.15 658.382 1155.93 650.566 C 1065.85 620.24 928.414 617.224 842.736 660.845 C 788.259 624.518 710.06 682.472 681.285 728.224 C 672.477 742.229 666.851 752.535 668.327 769.239 C 607.707 809.238 546.339 794.267 478.059 790.065 C 428.587 786.664 378.999 785.237 329.413 785.788 C 315.036 786.019 258.397 789.709 250.004 783.287 C 247.895 781.674 246.184 779.258 245.836 776.587 C 245.199 771.702 248.48 766.965 251.379 763.332 C 259.117 753.632 268.805 745.497 278.109 737.355 C 321.917 699.015 361.215 684.976 413.441 662.869 C 442.894 650.402 471.847 637.353 502.898 629.201 C 534.824 620.819 567.473 617.022 600.161 613.146 C 579.855 610.559 544.405 608.819 523.867 608.018 C 433.479 604.496 327.055 602.246 248.413 652.92 C 233.471 650.548 219.067 661.772 206.72 669.752 C 213.931 661.802 227.581 652.254 236.639 646.147 C 325.823 586.025 425.7 590.941 527.975 598.813 C 556.385 600.999 600.482 605 628.441 610.871 C 581.169 619.383 531.604 629.709 486.31 645.58 C 474.634 649.671 461.331 653.845 450.528 659.701 C 510.657 642.098 562.328 634.203 622.664 622.085 C 767.161 593.063 902.721 565.721 1050.62 590.044 C 1101.12 598.35 1137.1 609.512 1185.08 623.981 C 1178.96 610.995 1171.27 600.28 1160.11 591.199 L 1154.92 598.98 C 1148.72 596.332 1142.42 594.088 1136.1 591.767 C 1140.41 573.521 1154.7 555.559 1172.29 548.625 z"/>
  <path transform="translate(0,0)" fill="rgb(218,0,5)" d="M 660.355 625.81 C 709.214 623.999 749.833 614.037 796.993 603.663 C 865.722 588.544 929.194 584.006 999.335 592.741 C 973.61 593.657 948.787 593.125 922.717 596.862 C 882.753 602.59 840.519 616.077 802.396 629.201 C 782.423 636.076 766.075 648.68 744.479 655.714 L 744.724 657.369 C 741.886 657.951 710.894 657.021 705.463 657.07 C 703.763 637.922 675.985 631.516 660.355 625.81 z"/>
  <path transform="translate(0,0)" fill="rgb(0,10,29)" d="M 705.463 657.07 C 691.008 666.655 591.143 664.664 588.301 645.465 C 585.456 626.242 645.132 624.726 660.355 625.81 C 675.985 631.516 703.763 637.922 705.463 657.07 z"/>
  <path transform="translate(0,0)" fill="rgb(11,13,16)" d="M 1202.59 622.264 C 1202.8 618.625 1202.47 608.639 1203.91 606.531 C 1212.07 609.929 1212.96 623.017 1210.94 630.522 C 1210.43 626.19 1211.16 621.595 1206.37 621.26 L 1203.54 623.8 L 1202.59 622.264 z"/>
  <path transform="translate(0,0)" fill="rgb(11,13,16)" d="M 1226.98 652.753 C 1229 653.653 1229.1 653.61 1230.86 655.127 L 1233.47 673.219 L 1232.75 677.483 L 1230.12 678.635 L 1229.32 676.785 C 1229.21 670.39 1227.72 659.462 1226.98 652.753 z"/>
  <path transform="translate(0,0)" fill="rgb(238,11,7)" d="M 420.555 739.418 C 444.71 739.612 493.379 741.236 516.003 745.501 C 510.412 746.182 494.484 744.864 488.154 744.53 C 476.132 743.904 464.095 743.617 452.058 743.67 C 441.982 743.695 357.341 745.101 354.561 744.064 L 355.199 744.844 L 353.199 744.551 C 358.566 741.997 411.585 739.779 420.555 739.418 z"/>
  <path transform="translate(0,0)" fill="rgb(238,11,7)" d="M 480.369 764.497 C 500.454 762.474 595.491 766.704 611.461 773.616 C 606.523 773.384 601.578 773.033 596.662 772.525 C 557.96 768.524 519.194 767.11 480.369 764.497 z"/>
  <path transform="translate(0,0)" fill="rgb(0,10,29)" d="M 668.327 769.239 C 666.851 752.535 672.477 742.229 681.285 728.224 C 710.06 682.472 788.259 624.518 842.736 660.845 C 852.503 669.865 857.009 678.366 859.992 691.451 C 859.536 696.479 859.123 701.303 858.395 706.301 C 842.35 749.664 809.594 784.787 767.453 803.812 C 727.864 821.91 680.863 816.945 668.327 769.239 z"/>
  <path transform="translate(0,0)" fill="rgb(254,253,208)" d="M 733.633 691.985 L 733.784 692.084 C 734.298 693.759 730.079 697.073 728.267 698.814 C 717.01 709.632 702.535 724.781 696.197 739.202 C 723.931 725.526 779.446 677.887 811.825 703.05 C 834.139 720.391 811.42 760.221 786.217 760.339 C 765.842 760.435 758.55 734.833 749.502 721.376 C 749.157 720.844 748.656 720.403 748.028 720.629 C 727.277 727.181 705.557 741.443 688.583 755.036 C 686.448 756.8 687.139 760.001 687.295 761.976 C 708.574 819.645 783.067 776.38 815.744 755.8 C 797.764 773.919 783.672 787.355 759.544 797.259 C 723.396 812.097 691.694 801.148 677.134 763.622 C 680.251 738.667 712.871 704.836 733.633 691.985 z"/>
  <path transform="translate(0,0)" fill="rgb(29,87,124)" d="M 785.003 667.21 C 814.421 664.528 835.833 677.721 844.502 705.995 C 842.299 714.892 840.044 719.556 835.458 727.439 C 834.126 718.829 833.324 712.075 830.525 703.776 C 816.258 673.619 774.576 676.868 747.693 684.41 C 759.92 676.411 770.465 670.173 785.003 667.21 z"/>
  <path transform="translate(0,0)" fill="rgb(15,33,61)" d="M 539.884 891.398 C 544.652 894.768 571.158 890.327 578.829 890.172 C 644.136 888.855 710.37 883.438 775.324 876.794 C 813.013 872.939 852.414 864.758 889.895 858.458 C 875.885 886.644 863.771 908.708 831.965 919.541 C 803.703 929.167 717.969 924.54 683.864 924.176 C 593.4 923.909 502.954 921.588 412.596 917.213 C 376.519 915.464 190.842 908.185 172.853 881.655 C 201.864 882.988 229.577 880.387 258.438 880.341 C 266.587 883.52 284.222 890.207 292.476 891.745 C 365.818 905.418 467.492 903.933 539.884 891.398 z"/>
  <path transform="translate(0,0)" fill="rgb(38,60,97)" d="M 744.559 823.397 C 793.62 826.459 846.666 824.103 894.849 826.918 C 893.471 835.281 892.697 852.307 889.895 858.458 C 852.414 864.758 813.013 872.939 775.324 876.794 C 710.37 883.438 644.136 888.855 578.829 890.172 C 571.158 890.327 544.652 894.768 539.884 891.398 C 542.274 890.988 544.649 890.495 547.005 889.92 C 563.54 885.791 571.292 882.691 579.961 868.136 C 593.92 875.284 614.505 887.86 630.038 885.213 C 650.642 883.583 662.072 878.453 673.709 861.772 C 686.696 870.211 716.715 872.093 730.39 864.027 C 754.47 853.243 745.068 841.646 736.586 825.25 L 736.081 824.252 L 744.559 823.397 z"/>
  <path transform="translate(0,0)" fill="rgb(15,33,61)" d="M 1185.5 870.582 L 1269.5 870.459 C 1282.58 870.446 1301.86 869.523 1314.36 871.049 C 1312.7 874.82 1310.81 883.148 1308.98 888.168 C 1305.22 899.449 1294.8 918.296 1286.85 926.714 C 1280.52 933.413 1241.44 931.928 1231.71 931.946 L 1160.78 932.065 C 1175.99 908.579 1181.59 898.259 1185.5 870.582 z"/>
  <path transform="translate(0,0)" fill="rgb(38,60,97)" d="M 1323.82 820.999 C 1321.56 835.62 1319 857.724 1314.36 871.049 C 1301.86 869.523 1282.58 870.446 1269.5 870.459 L 1185.5 870.582 C 1188.22 854.447 1188.29 841.312 1188.28 824.97 C 1227.62 825.943 1283.82 822.437 1323.82 820.999 z"/>
  <path transform="translate(0,0)" fill="rgb(0,10,29)" d="M 630.038 885.213 C 618.815 878.629 610.959 881.27 599.999 867.862 C 589.033 854.445 588.421 825.112 602.889 814.99 C 631.997 794.627 678.883 827.271 673.709 861.772 C 662.072 878.453 650.642 883.583 630.038 885.213 z"/>
  <path transform="translate(0,0)" fill="rgb(254,253,208)" d="M 1183.9 794.163 C 1230.94 794.371 1277.98 794.019 1325.01 793.107 L 1325.21 796.505 L 1323.82 820.999 C 1283.82 822.437 1227.62 825.943 1188.28 824.97 C 1187.52 815.39 1186.06 803.473 1183.9 794.163 z"/>
  <path transform="translate(0,0)" fill="rgb(254,253,208)" d="M 744.559 823.397 C 749.811 820.683 755.239 818.327 760.317 815.286 C 769.401 809.845 779.313 801.929 789.366 798.579 C 797.812 795.765 888.22 794.348 901.677 794.555 C 898.871 805.459 896.942 815.882 894.849 826.918 C 846.666 824.103 793.62 826.459 744.559 823.397 z"/>
  <path transform="translate(0,0)" fill="rgb(0,10,29)" d="M 175.527 873.846 C 174.606 872.261 168.924 866.633 167.057 864.457 C 161.278 857.451 157.259 841.755 157.699 832.867 C 159.437 797.692 200.58 806.821 216.838 825.572 C 226.693 836.938 228.138 842.12 227.858 856.065 C 214.29 876.745 198.825 877.664 175.527 873.846 z"/>
  <path transform="translate(0,0)" fill="rgb(218,0,5)" d="M 1234.4 678.27 C 1263.13 683.713 1284.06 685.308 1313.36 687.437 C 1313.74 690.324 1314.09 693.349 1314.54 696.212 C 1316.05 701.984 1317.12 707.222 1318.28 713.047 C 1303.67 715.037 1253.67 711.917 1236.12 710.988 C 1236.06 703.231 1236.04 696.9 1235.28 689.15 L 1234.4 678.27 z"/>
  <path transform="translate(0,0)" fill="rgb(238,11,7)" d="M 1234.4 678.27 C 1263.13 683.713 1284.06 685.308 1313.36 687.437 C 1313.74 690.324 1314.09 693.349 1314.54 696.212 C 1309.86 700.044 1248 689.382 1235.28 689.15 L 1234.4 678.27 z"/>
  <path transform="translate(0,0)" fill="rgb(0,10,29)" d="M 686.296 851.966 C 671.719 808.86 709.123 816.64 736.081 824.252 L 736.586 825.25 C 745.068 841.646 754.47 853.243 730.39 864.027 C 733.897 859.746 735.258 859.339 733.078 854.494 C 723.719 859.914 705.369 867.364 697.582 855.295 C 692.541 855.896 690.76 854.339 686.296 851.966 z"/>
  <path transform="translate(0,0)" fill="rgb(254,253,208)" d="M 697.582 855.295 C 708.878 844.686 721.186 845.445 733.078 854.494 C 723.719 859.914 705.369 867.364 697.582 855.295 z"/>
  <path transform="translate(0,0)" fill="rgb(38,60,97)" d="M 138.609 837.718 C 144.625 848.614 162.735 872.252 175.527 873.846 C 198.825 877.664 214.29 876.745 227.858 856.065 C 238.14 867.97 245.293 872.188 258.438 880.341 C 229.577 880.387 201.864 882.988 172.853 881.655 C 158.52 878.573 135.547 858.757 133.556 843.599 C 134.808 839.737 134.85 840.63 138.609 837.718 z"/>
  <path transform="translate(0,0)" fill="rgb(254,253,208)" d="M 859.992 691.451 C 890.242 677.094 930.272 667.412 963.626 665.885 C 969.28 666.269 981.203 665.628 984.811 667.659 C 954.91 673.553 929.197 679.871 900.066 689.436 C 888.64 693.187 866.835 704.066 858.395 706.301 C 859.123 701.303 859.536 696.479 859.992 691.451 z"/>
  <path transform="translate(0,0)" fill="rgb(254,253,208)" d="M 1236.12 710.988 C 1253.67 711.917 1303.67 715.037 1318.28 713.047 L 1320.17 724.011 C 1292.17 723.086 1264.19 721.534 1236.26 719.355 L 1236.12 710.988 z"/>
  <path transform="translate(0,0)" fill="url(#Gradient13)" d="M 980.404 687.831 L 983.016 690.765 C 979.12 693.11 971.132 697.621 967.844 700.228 C 960.198 703.337 931.673 725.807 924.938 732.716 C 922.385 735.336 914.482 745.116 911.78 748.515 L 910.845 748.39 C 910.993 747.627 911.156 746.624 911.539 745.946 C 928.858 715.314 949.463 700.484 980.404 687.831 z"/>
  <path transform="translate(0,0)" fill="rgb(250,246,224)" d="M 1174.17 711.594 C 1190.21 709.693 1215.64 710.457 1232.03 711.091 L 1231.87 718.295 C 1225.53 719.316 1183.37 712.714 1174.17 711.594 z"/>
  <path transform="translate(0,0)" fill="rgb(7,7,20)" d="M 1233.47 673.219 L 1234.4 678.27 L 1235.28 689.15 C 1236.04 696.9 1236.06 703.231 1236.12 710.988 L 1236.26 719.355 L 1235.96 721.105 C 1233.13 720.556 1234.34 721.156 1232.19 719.25 L 1231.87 718.295 L 1232.03 711.091 C 1230.89 701.962 1230.72 688.204 1230.12 678.635 L 1232.75 677.483 L 1233.47 673.219 z"/>
  <path transform="translate(0,0)" fill="rgb(23,9,32)" d="M 1232.19 719.25 C 1234.34 721.156 1233.13 720.556 1235.96 721.105 C 1235.76 736.891 1236.34 755.2 1238.84 770.768 C 1232.48 752.029 1231.75 738.645 1232.19 719.25 z"/>
  <path transform="translate(0,0)" fill="rgb(253,229,220)" d="M 980.404 687.831 C 989.28 684.28 1003.77 678.36 1013.09 679.381 C 1002.15 682.904 993.367 685.613 983.016 690.765 L 980.404 687.831 z"/>
  <path transform="translate(0,0)" fill="rgb(253,229,220)" d="M 963.626 665.885 C 972.642 664.435 991.133 664.878 1001 664.887 C 994.779 666.314 991.14 667.001 984.811 667.659 C 981.203 665.628 969.28 666.269 963.626 665.885 z"/>
  <path transform="translate(0,0)" fill="rgb(0,10,29)" d="M 333.455 803.443 C 373.749 802.025 526.56 802.969 554.302 824.982 C 562.789 831.716 569.117 842.272 570.339 853.099 C 570.96 858.612 569.606 863.597 566.033 867.892 C 551.431 885.443 490.734 887.68 468.234 889.782 C 413.418 891.767 286.996 897.636 246.28 861.561 C 236.798 853.16 232.634 842.807 231.984 830.325 C 231.696 824.787 231.192 818.468 235.422 814.183 C 247.643 801.805 314.468 804.053 333.455 803.443 z"/>
  <path transform="translate(0,0)" fill="rgb(218,0,5)" d="M 1562.81 593.854 C 1582.25 591.519 1604.7 586.195 1625.09 583.642 C 1707.88 573.272 1776.11 572.456 1852.56 609.251 C 1875.09 620.372 1896.46 633.705 1916.35 649.053 C 1919.48 651.5 1924.38 656.089 1927.88 657.032 C 1928.44 654.213 1927.37 653.329 1925.97 650.276 C 1920.17 642.459 1916.77 639.336 1909.01 633.425 C 1920.81 632.094 1933.27 632.204 1944.14 630.754 C 1973.52 646.527 1974.65 706.145 1973.22 735.573 C 1968.95 772.843 1960.44 820.964 1928.97 845.614 C 1921.54 851.334 1913.13 855.636 1904.14 858.306 C 1907.61 836.679 1908.47 805.412 1903.11 784.289 C 1894.7 746.272 1876.25 707.299 1837.49 692.235 C 1812.4 682.483 1775.3 684.009 1750.54 694.783 C 1712.79 711.211 1695.88 744.377 1681.7 780.547 C 1676.67 781.145 1671.64 781.778 1666.62 782.449 L 1666.25 782.768 C 1664.99 779.501 1665.88 780.631 1662.46 778.739 L 1661.23 783.144 C 1637.24 785.265 1610.91 784.735 1586.73 786.039 C 1579.74 786.417 1566.07 785.926 1560.17 786.689 L 1559.88 785.769 L 1555.57 784.704 C 1558.41 756.065 1558.97 734.833 1551.87 707.051 C 1550.61 702.681 1547.56 696.211 1545.67 691.858 L 1545.24 691.507 C 1540.89 682.717 1536.65 677.341 1530.66 669.826 C 1531.08 668.883 1531.77 666.284 1532.1 665.163 L 1532.02 664.333 C 1528.44 661.084 1524.45 656.945 1520.94 653.506 C 1524.37 652.587 1537.8 648.508 1540.59 649.609 C 1540.78 651.501 1540.69 652.179 1541.58 653.86 C 1545.13 650.068 1548.69 645.709 1553.08 644.265 C 1577.62 636.193 1612.5 625.323 1571.13 603.196 C 1569.13 602.128 1564.43 596.01 1562.81 593.854 z"/>
  <path transform="translate(0,0)" fill="rgb(218,0,5)" d="M 1657.15 659.551 C 1658.51 663.428 1660.07 667.59 1661.22 671.499 L 1661.89 672.401 C 1671.26 708.79 1668.98 742.243 1662.46 778.739 L 1661.23 783.144 C 1637.24 785.265 1610.91 784.735 1586.73 786.039 C 1579.74 786.417 1566.07 785.926 1560.17 786.689 L 1559.88 785.769 L 1555.57 784.704 C 1558.41 756.065 1558.97 734.833 1551.87 707.051 C 1550.61 702.681 1547.56 696.211 1545.67 691.858 C 1546.13 690.05 1547.25 688.952 1548.42 687.468 L 1549.89 689.711 C 1572.65 686.057 1635.4 668.35 1657.15 659.551 z"/>
  <path transform="translate(0,0)" fill="rgb(254,253,208)" d="M 1657.15 659.551 C 1658.51 663.428 1660.07 667.59 1661.22 671.499 C 1626.88 681.855 1592 698.406 1556.51 706.112 C 1554.87 701.013 1552.02 694.747 1549.89 689.711 C 1572.65 686.057 1635.4 668.35 1657.15 659.551 z"/>
  <path transform="translate(0,0)" fill="url(#Gradient12)" d="M 1548.42 687.468 L 1549.89 689.711 C 1552.02 694.747 1554.87 701.013 1556.51 706.112 C 1562.29 727.358 1565.48 764.641 1559.88 785.769 L 1555.57 784.704 C 1558.41 756.065 1558.97 734.833 1551.87 707.051 C 1550.61 702.681 1547.56 696.211 1545.67 691.858 C 1546.13 690.05 1547.25 688.952 1548.42 687.468 z"/>
  <path transform="translate(0,0)" fill="rgb(239,235,225)" d="M 1637.29 756.425 C 1643.62 756.022 1653.86 754.804 1659.47 756.958 L 1658.75 758.102 C 1653.16 760.248 1646.39 760.521 1640.36 761.093 C 1631.78 761.222 1616.39 760.276 1608.12 758.42 C 1617.98 757.149 1627.38 756.848 1637.29 756.425 z"/>
  <path transform="translate(0,0)" fill="rgb(254,253,208)" d="M 1562.81 593.854 C 1582.25 591.519 1604.7 586.195 1625.09 583.642 C 1707.88 573.272 1776.11 572.456 1852.56 609.251 C 1875.09 620.372 1896.46 633.705 1916.35 649.053 C 1919.48 651.5 1924.38 656.089 1927.88 657.032 C 1928.44 654.213 1927.37 653.329 1925.97 650.276 C 1927.09 649.054 1927.86 648.555 1929.17 647.558 C 1937.87 649.128 1945.98 675.022 1948.93 682.93 C 1922.48 667.898 1898.16 647.271 1874.86 634.459 C 1867.81 633.156 1857.99 626.148 1851.18 623.324 C 1827.68 613.525 1803.16 606.369 1778.08 601.988 C 1756.9 598.688 1735.47 597.361 1714.05 598.022 C 1706.25 598.222 1678.14 601.36 1673.65 600.285 C 1639.66 604.65 1638.59 612.426 1614.94 628.842 C 1600.94 638.552 1548.28 661.918 1532.02 664.333 C 1528.44 661.084 1524.45 656.945 1520.94 653.506 C 1524.37 652.587 1537.8 648.508 1540.59 649.609 C 1540.78 651.501 1540.69 652.179 1541.58 653.86 C 1545.13 650.068 1548.69 645.709 1553.08 644.265 C 1577.62 636.193 1612.5 625.323 1571.13 603.196 C 1569.13 602.128 1564.43 596.01 1562.81 593.854 z"/>
  <path transform="translate(0,0)" fill="rgb(85,0,1)" d="M 1673.65 600.285 C 1686.8 596.743 1705.29 595.808 1718.93 595.597 C 1770.2 594.805 1831.57 605.219 1874.86 634.459 C 1867.81 633.156 1857.99 626.148 1851.18 623.324 C 1827.68 613.525 1803.16 606.369 1778.08 601.988 C 1756.9 598.688 1735.47 597.361 1714.05 598.022 C 1706.25 598.222 1678.14 601.36 1673.65 600.285 z"/>
  <path transform="translate(0,0)" fill="rgb(15,33,61)" d="M 1973.22 735.573 C 1968.95 772.843 1960.44 820.964 1928.97 845.614 C 1921.54 851.334 1913.13 855.636 1904.14 858.306 C 1907.61 836.679 1908.47 805.412 1903.11 784.289 C 1922 772.471 1957.76 750.744 1973.22 735.573 z"/>
  <path transform="translate(0,0)" fill="rgb(254,253,208)" d="M 1661.52 657.965 C 1689.56 650.285 1725.23 640.453 1754.19 640.874 C 1734.32 648.287 1709.03 653.938 1688.56 661.681 C 1682.82 663.851 1671.27 666.969 1666.23 669.959 C 1664.51 666.957 1662.74 661.402 1661.52 657.965 z"/>
  <path transform="translate(0,0)" fill="rgb(23,9,32)" d="M 1666.38 672.701 C 1675.93 702.83 1673.8 738.959 1668.66 769.483 C 1667.96 773.6 1667 778.37 1666.62 782.449 L 1666.25 782.768 C 1664.99 779.501 1665.88 780.631 1662.46 778.739 C 1668.98 742.243 1671.26 708.79 1661.89 672.401 L 1666.38 672.701 z"/>
  <path transform="translate(0,0)" fill="rgb(7,7,20)" d="M 1657.15 659.551 C 1653.48 650.095 1650.03 642.71 1645.61 633.549 C 1653.47 641.698 1656.88 647.575 1661.52 657.965 C 1662.74 661.402 1664.51 666.957 1666.23 669.959 L 1666.38 672.701 L 1661.89 672.401 L 1661.22 671.499 C 1660.07 667.59 1658.51 663.428 1657.15 659.551 z"/>
  <path transform="translate(0,0)" fill="rgb(23,9,32)" d="M 1532.1 665.163 C 1536.25 669.565 1547.03 681.964 1548.42 687.468 C 1547.25 688.952 1546.13 690.05 1545.67 691.858 L 1545.24 691.507 C 1540.89 682.717 1536.65 677.341 1530.66 669.826 C 1531.08 668.883 1531.77 666.284 1532.1 665.163 z"/>
  <path transform="translate(0,0)" fill="rgb(239,235,225)" d="M 1927.4 633.011 C 1949.1 632.127 1956.98 646.618 1960.09 666.281 C 1959.52 665.413 1959.47 665.409 1959.06 664.454 C 1952.7 649.447 1942.13 640.112 1927.4 633.011 z"/>
  <path transform="translate(0,0)" fill="rgb(38,60,97)" d="M 925.826 886.184 C 918.191 849.769 926.932 802.827 942.564 769.304 C 952.919 747.099 975.085 723.494 998.499 716.34 C 1021.58 709.288 1052.87 712.078 1074.1 723.159 C 1099.89 736.615 1117.64 757.233 1128.87 783.663 C 1131.22 789.186 1134.6 795.023 1136.46 800.784 C 1143.19 824.045 1145.1 846.612 1140.68 870.419 C 1143.74 874.116 1145.35 875.427 1144.23 881.342 C 1140.84 899.226 1135.43 915.863 1123.14 929.801 C 1120.57 932.717 1111.02 942.432 1109.83 944.402 C 1104.64 953.006 1106.37 955.419 1096.91 962.512 C 1090.87 967.033 1081.35 974.257 1074.02 976.532 C 1059.14 981.144 1030.22 984.637 1015.08 983.363 C 989.642 981.221 962.597 962.106 946.571 942.935 C 936.186 930.512 926.984 902.789 925.826 886.184 z"/>
  <path transform="translate(0,0)" fill="rgb(15,33,61)" d="M 1140.68 870.419 C 1143.74 874.116 1145.35 875.427 1144.23 881.342 C 1140.84 899.226 1135.43 915.863 1123.14 929.801 C 1120.57 932.717 1111.02 942.432 1109.83 944.402 C 1104.64 953.006 1106.37 955.419 1096.91 962.512 C 1090.87 967.033 1081.35 974.257 1074.02 976.532 C 1059.14 981.144 1030.22 984.637 1015.08 983.363 C 989.642 981.221 962.597 962.106 946.571 942.935 C 936.186 930.512 926.984 902.789 925.826 886.184 C 931.017 892.953 935.127 905.767 939.744 913.076 C 967.635 957.227 1019.1 980.339 1069.5 959.505 C 1102.04 946.056 1119.68 925.226 1135 894.673 C 1137.8 889.083 1140.62 880.157 1138.41 874.567 L 1140.68 870.419 z"/>
  <path transform="translate(0,0)" fill="rgb(171,188,192)" d="M 1136.46 800.784 C 1143.19 824.045 1145.1 846.612 1140.68 870.419 L 1138.41 874.567 C 1136.82 871.823 1138.4 858.069 1138.99 854.21 C 1141.2 839.895 1135.27 812.244 1136.46 800.784 z"/>
  <path transform="translate(0,0)" fill="rgb(0,10,29)" d="M 1016.03 726.393 C 1024.8 724.791 1044.72 726.954 1052.94 729.652 C 1154.07 762.836 1148.45 940.455 1041.51 959.766 C 978.553 965.598 940.472 909.484 933.664 853.199 C 927.101 798.943 954.958 732.459 1016.03 726.393 z"/>
  <path transform="translate(0,0)" fill="rgb(0,10,29)" d="M 942.826 816.401 C 957.462 734.03 1043.02 709.338 1095.34 778.086 C 1109.38 796.532 1117.56 830.19 1115.15 853.483 C 1115.08 854.497 1115 855.51 1114.89 856.521 C 1107.02 935.484 1025.65 991.226 967.333 917.459 C 943.724 887.595 938.368 853.284 942.826 816.401 z"/>
  <path transform="translate(0,0)" fill="rgb(250,246,224)" d="M 1007.67 819.408 C 1002.79 811.17 986.077 778.966 987.668 770.553 C 992.213 778.915 1011.41 823.505 1017.54 825.354 C 1018.1 823.948 1018.63 822.527 1019.11 821.092 L 1020.28 824.435 L 1021.29 822.147 L 1020.26 824.4 C 1022.77 821.369 1023.88 783.732 1024.24 777.402 L 1025.46 778.004 C 1025.9 784.099 1025.52 792.236 1026.12 797.322 C 1026.21 799.63 1025.84 804.947 1026.15 806.791 C 1026.78 810.463 1024.94 821 1025.88 823.07 L 1028.84 823.543 C 1037.06 814.88 1050.05 779.682 1060.36 778.222 L 1062.49 783.353 C 1074.73 780.065 1088.57 818.427 1090.52 827.268 C 1095.97 852.306 1091.14 878.484 1077.1 899.925 C 1067.34 915.023 1052.38 928.158 1034.42 931.971 C 1021.52 934.727 1008.06 932.039 997.209 924.542 C 996.883 924.302 996.556 924.062 996.23 923.821 L 994.273 923.509 L 992.992 920.548 C 991.988 905.927 1005.99 868.349 1011.33 853.484 C 1012.24 851.036 1012.08 852.005 1010.64 848.847 L 1012.4 846.909 L 1012.22 844.292 C 1009.68 841.782 1010.87 842.531 1007.01 841.852 L 1000.97 841.116 L 1000.56 840.076 C 1002.73 838.033 1003 838.035 1005.86 836.972 C 1007.68 837.26 1007.99 837.119 1009.84 836.89 C 1013.64 831.241 1010.38 824.765 1007.67 819.408 z"/>
  <path transform="translate(0,0)" fill="url(#Gradient11)" d="M 1060.36 778.222 L 1062.49 783.353 C 1078.41 801.342 1089.17 825.173 1087.66 849.541 C 1087.6 850.452 1087.52 851.361 1087.4 852.266 C 1086.69 848.202 1087.17 847.586 1084.6 845.61 C 1080.97 845.524 1079.81 845.42 1076.24 844.632 L 1075.38 844.436 C 1077.67 844.248 1081.21 844.317 1082.57 842.969 C 1075.78 838.556 1040.2 841.737 1033.4 835.462 C 1034.4 832.477 1037.55 830.711 1040.24 828.676 L 1039.14 826.851 C 1038.64 826.123 1038.52 826.283 1037.52 825.781 L 1031.21 828.81 C 1040.23 811.422 1050.19 794.938 1060.36 778.222 z"/>
  <path transform="translate(0,0)" fill="rgb(239,235,225)" d="M 1039.14 826.851 C 1042.93 822.254 1065.49 807.926 1071.26 805.466 L 1072.07 805.524 C 1067.66 811.985 1047.71 823.917 1040.24 828.676 L 1039.14 826.851 z"/>
  <path transform="translate(0,0)" fill="url(#Gradient10)" d="M 1078.93 882.507 C 1072.65 877.854 1033.07 849.561 1032.01 845.799 L 1033.38 843.897 C 1038.33 841.829 1069.43 843.487 1075.38 844.436 L 1076.24 844.632 C 1079.81 845.42 1080.97 845.524 1084.6 845.61 C 1087.17 847.586 1086.69 848.202 1087.4 852.266 C 1086.03 865.213 1084.3 871.034 1078.93 882.507 z"/>
  <path transform="translate(0,0)" fill="rgb(0,10,29)" d="M 1015.98 894.5 C 1017.81 885.653 1018.32 878.459 1023.94 871.468 C 1027.55 882.627 1036.7 910.202 1043.2 919.61 C 1034.84 927.333 1016.12 926.596 1005.69 924.47 L 1005.61 921.159 C 1009.32 916.832 1009.4 916.555 1011.14 911.237 C 1010.63 908.079 1010.66 904.857 1011.23 901.709 C 1011.97 897.771 1013.18 896.524 1015.98 894.5 z"/>
  <path transform="translate(0,0)" fill="rgb(15,33,61)" d="M 1011.14 911.237 C 1010.63 908.079 1010.66 904.857 1011.23 901.709 C 1011.97 897.771 1013.18 896.524 1015.98 894.5 C 1016.72 899.684 1019.59 913.877 1016.37 917.77 C 1013.02 917.101 1014.35 917.892 1012.13 915.518 C 1011.91 914.278 1011.67 912.262 1011.14 911.237 z"/>
  <path transform="translate(0,0)" fill="rgb(38,60,97)" d="M 1009.08 870.773 C 1010.68 865.658 1012.17 857.913 1016.2 855.049 L 1019.54 857.538 L 1023.94 871.468 C 1018.32 878.459 1017.81 885.653 1015.98 894.5 C 1013.18 896.524 1011.97 897.771 1011.23 901.709 C 1010.66 904.857 1010.63 908.079 1011.14 911.237 C 1009.4 916.555 1009.32 916.832 1005.61 921.159 L 1003.49 919.186 C 998.298 905.2 1017.75 883.956 1009.08 870.773 z"/>
  <path transform="translate(0,0)" fill="rgb(15,33,61)" d="M 1009.08 870.773 C 1017.75 883.956 998.298 905.2 1003.49 919.186 L 1005.61 921.159 L 1005.69 924.47 C 1001.58 923.513 1000.58 923.153 996.23 923.821 L 994.273 923.509 L 992.992 920.548 C 997.326 914.764 1005.25 881.192 1009.08 870.773 z"/>
  <path transform="translate(0,0)" fill="rgb(15,33,61)" d="M 1022.68 854.173 L 1024.02 853.948 L 1025.56 855.719 L 1027.58 855.407 C 1027.33 853.526 1027.32 853.395 1026.65 851.629 C 1031.93 851.504 1041.39 858.994 1045.43 862.428 C 1052.93 868.076 1070.38 880.699 1076.01 887.026 C 1069.19 901.586 1059.53 910.598 1045.85 918.795 C 1042.44 913.918 1029.99 877.406 1027.33 869.74 C 1025.55 865.106 1024.04 859.049 1022.68 854.173 z"/>
  <path transform="translate(0,0)" fill="rgb(38,60,97)" d="M 1022.68 854.173 L 1024.02 853.948 L 1025.56 855.719 L 1027.58 855.407 C 1027.33 853.526 1027.32 853.395 1026.65 851.629 C 1031.93 851.504 1041.39 858.994 1045.43 862.428 C 1041.31 863.994 1042.64 862.841 1040.5 866.795 C 1040.14 876.229 1055.01 892.438 1059.77 904.002 C 1047.45 893.609 1038.19 871.291 1031.5 868.446 C 1028.87 868.785 1029.18 868.359 1027.33 869.74 C 1025.55 865.106 1024.04 859.049 1022.68 854.173 z"/>
  <path transform="translate(0,0)" fill="rgb(254,253,208)" d="M 942.826 816.401 C 945.664 811.983 944.244 812.839 948.139 811.615 C 951.259 812.927 950.179 812.072 952.026 815.056 L 952.131 819.209 C 949.087 846.532 952.611 875.312 967.426 899.047 C 974.105 910.847 981.11 918.566 991.512 927.185 C 1044.54 966.234 1098.31 912.536 1103.08 857.605 C 1104.11 854.038 1103.82 852.46 1106.35 850.834 L 1115.15 853.483 C 1115.08 854.497 1115 855.51 1114.89 856.521 C 1107.02 935.484 1025.65 991.226 967.333 917.459 C 943.724 887.595 938.368 853.284 942.826 816.401 z"/>
  <path transform="translate(0,0)" fill="url(#Gradient9)" d="M 942.826 816.401 C 957.462 734.03 1043.02 709.338 1095.34 778.086 C 1109.38 796.532 1117.56 830.19 1115.15 853.483 L 1106.35 850.834 C 1103.82 852.46 1104.11 854.038 1103.08 857.605 C 1110.25 740.532 976.999 705.748 952.131 819.209 L 952.026 815.056 C 950.179 812.072 951.259 812.927 948.139 811.615 C 944.244 812.839 945.664 811.983 942.826 816.401 z"/>
  <path transform="translate(0,0)" fill="url(#Gradient8)" d="M 971.57 877.499 C 971.631 877.426 1009.84 854.084 1011.33 853.484 C 1005.99 868.349 991.988 905.927 992.992 920.548 L 994.273 923.509 C 992.593 925.136 992.116 925.148 991.512 927.185 C 981.11 918.566 974.105 910.847 967.426 899.047 C 968.001 898.884 969.246 898.172 969.838 897.863 C 969.699 893.707 969.773 880.705 971.57 877.499 z"/>
  <path transform="translate(0,0)" fill="rgb(38,60,97)" d="M 984.673 839.197 C 995.18 837.519 993.42 843.122 1007.01 841.852 C 1010.87 842.531 1009.68 841.782 1012.22 844.292 L 1012.4 846.909 L 1010.64 848.847 C 1007.44 851.103 1002.38 854.943 998.981 856.387 L 998.762 855.565 C 999.591 853.065 1000.96 852.973 1003.74 851.31 L 1002.96 850.472 C 992.297 849.905 968.844 863.831 959.112 857.442 C 950.23 841.785 981.428 848.507 990.197 841.827 C 988.646 839.65 988.027 840.145 984.673 839.197 z"/>
  <path transform="translate(0,0)" fill="rgb(38,60,97)" d="M 971.15 813.246 C 968.526 809.126 964.04 804.169 966.11 799.53 C 973.212 798.05 993.311 815.079 1000.54 818.996 C 1004.08 820.914 1004.08 820.401 1007.67 819.408 C 1010.38 824.765 1013.64 831.241 1009.84 836.89 C 1007.99 837.119 1007.68 837.26 1005.86 836.972 C 1004.26 835.758 997.258 832.784 994.996 831.772 C 997.267 830.128 996.679 829.278 996.157 827.004 C 992.016 821.38 977.87 816.157 971.15 813.246 z"/>
  <path transform="translate(0,0)" fill="rgb(38,60,97)" d="M 977.005 828.739 C 981.681 830.489 997.622 836.055 1000.48 838.975 L 1000.56 840.076 L 1000.97 841.116 L 1007.01 841.852 C 993.42 843.122 995.18 837.519 984.673 839.197 C 979.832 839.188 964.205 838.459 960.403 836.176 C 962.888 831.845 971.732 832.024 977.005 828.739 z"/>
  <path transform="translate(0,0)" fill="rgb(239,235,225)" d="M 998.981 856.387 C 1002.38 854.943 1007.44 851.103 1010.64 848.847 C 1012.08 852.005 1012.24 851.036 1011.33 853.484 C 1009.84 854.084 971.631 877.426 971.57 877.499 C 968.583 878.841 968.359 879.045 965.162 879.23 C 966.644 874.816 992.836 860.346 998.981 856.387 z"/>
  <path transform="translate(0,0)" fill="rgb(239,235,225)" d="M 953.919 817.803 C 963.73 819.073 984.829 827.805 994.996 831.772 C 997.258 832.784 1004.26 835.758 1005.86 836.972 C 1003 838.035 1002.73 838.033 1000.56 840.076 L 1000.48 838.975 C 997.622 836.055 981.681 830.489 977.005 828.739 C 968.412 825.157 961.903 822.625 953.919 817.803 z"/>
  <path transform="translate(0,0)" fill="rgb(239,235,225)" d="M 1024.24 777.402 C 1024.23 771.195 1025.06 768.038 1026.75 762.018 C 1026.89 770.746 1027.53 789.493 1026.12 797.322 C 1025.52 792.236 1025.9 784.099 1025.46 778.004 L 1024.24 777.402 z"/>
  <path transform="translate(0,0)" fill="rgb(218,0,5)" d="M 1230.86 655.127 L 1231.55 655.241 C 1237.92 656.332 1244.8 658.19 1251.21 659.579 C 1339.87 678.803 1425.71 669.887 1514.07 654.275 C 1519.44 658.668 1522.33 661.154 1527.04 666.207 L 1530.66 669.826 C 1536.65 677.341 1540.89 682.717 1545.24 691.507 L 1545.67 691.858 C 1547.56 696.211 1550.61 702.681 1551.87 707.051 C 1558.97 734.833 1558.41 756.065 1555.57 784.704 L 1555.19 787.068 C 1554.31 793.913 1553.35 803.731 1551.65 810.187 L 1551.33 810.815 C 1549.08 823.915 1542.01 848.234 1534.55 859.166 C 1518.21 865.084 1488.42 866.225 1470.72 867.214 C 1430.37 869.341 1389.98 870.498 1349.57 870.684 C 1339.88 870.764 1329.91 870.069 1320.46 870.189 C 1324.49 851.316 1325.23 839.009 1328.03 821.085 L 1329.61 794.871 L 1328.31 792.474 L 1326.9 792.572 L 1325.21 796.505 L 1325.01 793.107 C 1327.12 775.698 1323.44 745.501 1321.06 728.427 L 1320.17 724.011 L 1318.28 713.047 C 1317.12 707.222 1316.05 701.984 1314.54 696.212 C 1314.09 693.349 1313.74 690.324 1313.36 687.437 C 1284.06 685.308 1263.13 683.713 1234.4 678.27 L 1233.47 673.219 L 1230.86 655.127 z"/>
  <path transform="translate(0,0)" fill="url(#Gradient7)" d="M 1230.86 655.127 L 1231.55 655.241 C 1237.92 656.332 1244.8 658.19 1251.21 659.579 C 1339.87 678.803 1425.71 669.887 1514.07 654.275 C 1519.44 658.668 1522.33 661.154 1527.04 666.207 L 1530.66 669.826 C 1536.65 677.341 1540.89 682.717 1545.24 691.507 L 1545.67 691.858 C 1547.56 696.211 1550.61 702.681 1551.87 707.051 C 1490.37 718.655 1427.9 724.329 1365.31 723.994 C 1355.31 724.009 1334.08 724.516 1324.74 723.703 L 1324.28 723.351 C 1323.2 725.442 1322.7 726.688 1321.06 728.427 L 1320.17 724.011 L 1318.28 713.047 C 1317.12 707.222 1316.05 701.984 1314.54 696.212 C 1314.09 693.349 1313.74 690.324 1313.36 687.437 C 1284.06 685.308 1263.13 683.713 1234.4 678.27 L 1233.47 673.219 L 1230.86 655.127 z"/>
  <path transform="translate(0,0)" fill="rgb(254,253,208)" d="M 1230.86 655.127 L 1231.55 655.241 C 1237.92 656.332 1244.8 658.19 1251.21 659.579 C 1339.87 678.803 1425.71 669.887 1514.07 654.275 C 1519.44 658.668 1522.33 661.154 1527.04 666.207 C 1447.71 687.426 1396.11 688.087 1316.34 688.002 C 1316 687.551 1312.65 680.335 1312.01 679.037 L 1312.56 680.871 L 1312.03 681.687 L 1313.36 687.437 C 1284.06 685.308 1263.13 683.713 1234.4 678.27 L 1233.47 673.219 L 1230.86 655.127 z"/>
  <path transform="translate(0,0)" fill="rgb(254,253,208)" d="M 1545.24 691.507 L 1545.67 691.858 C 1547.56 696.211 1550.61 702.681 1551.87 707.051 C 1490.37 718.655 1427.9 724.329 1365.31 723.994 C 1355.31 724.009 1334.08 724.516 1324.74 723.703 L 1324.28 723.351 L 1322.27 713.726 C 1324.98 712.96 1331.01 713.216 1334.05 713.154 C 1398.21 711.846 1462.56 705.868 1525.71 694.42 C 1532.04 693.273 1538.83 691.767 1545.24 691.507 z"/>
  <path transform="translate(0,0)" fill="rgb(7,7,20)" d="M 1313.36 687.437 L 1312.03 681.687 L 1312.56 680.871 L 1312.01 679.037 C 1312.65 680.335 1316 687.551 1316.34 688.002 L 1322.27 713.726 L 1324.28 723.351 C 1323.2 725.442 1322.7 726.688 1321.06 728.427 L 1320.17 724.011 L 1318.28 713.047 C 1317.12 707.222 1316.05 701.984 1314.54 696.212 C 1314.09 693.349 1313.74 690.324 1313.36 687.437 z"/>
  <path transform="translate(0,0)" fill="rgb(38,60,97)" d="M 1328.03 821.085 C 1337.73 821.061 1348.31 820.493 1358.02 819.953 C 1422.18 816.386 1487.27 815.406 1551.33 810.815 C 1549.08 823.915 1542.01 848.234 1534.55 859.166 C 1518.21 865.084 1488.42 866.225 1470.72 867.214 C 1430.37 869.341 1389.98 870.498 1349.57 870.684 C 1339.88 870.764 1329.91 870.069 1320.46 870.189 C 1324.49 851.316 1325.23 839.009 1328.03 821.085 z"/>
  <path transform="translate(0,0)" fill="rgb(254,253,208)" d="M 1330.28 793.322 C 1350.22 791.316 1381.37 791.774 1402.27 791.26 C 1453.25 790.132 1504.23 788.735 1555.19 787.068 C 1554.31 793.913 1553.35 803.731 1551.65 810.187 L 1551.33 810.815 C 1487.27 815.406 1422.18 816.386 1358.02 819.953 C 1348.31 820.493 1337.73 821.061 1328.03 821.085 L 1329.61 794.871 L 1330.28 793.322 z"/>
  <path transform="translate(0,0)" fill="rgb(23,9,32)" d="M 1324.28 723.351 L 1324.74 723.703 C 1326.56 743.379 1330.16 762.5 1329.91 782.484 C 1329.87 785.643 1329.96 790.253 1330.28 793.322 L 1329.61 794.871 L 1328.31 792.474 L 1326.9 792.572 L 1325.21 796.505 L 1325.01 793.107 C 1327.12 775.698 1323.44 745.501 1321.06 728.427 C 1322.7 726.688 1323.2 725.442 1324.28 723.351 z"/>
  <path transform="translate(0,0)" fill="rgb(254,253,208)" d="M 1167.97 425.761 C 1196.88 350.89 1248.35 322.845 1327.28 333.489 C 1398.64 343.112 1442.5 403.447 1431.63 473.71 C 1430.25 480.891 1428.12 491.127 1425.46 497.978 L 1425.21 499.687 L 1425.83 504.889 C 1424.09 520.391 1410.24 545.899 1397.16 554.953 C 1360.63 580.254 1310.72 592.426 1267.33 599.598 C 1266.88 599.672 1266.15 599.394 1265.71 599.247 C 1269.82 598.044 1272.82 597.297 1277.02 596.451 L 1277.78 594.203 C 1263.94 597.001 1251.54 599.896 1237.33 600.521 L 1241.82 611.963 C 1261.45 621.433 1331.95 642.721 1350.28 638.505 L 1350.93 637.147 C 1344.41 627.667 1329.19 631.873 1328.24 624.695 C 1336.8 615.143 1351.23 627.615 1361.55 625.93 L 1361.92 624.821 C 1354.65 618.081 1337.72 618.989 1334.01 611.628 C 1334.58 608.388 1333.84 609.661 1336.04 607.535 C 1339.04 607.242 1341.14 608.458 1344.01 609.613 L 1343.43 606.706 C 1344.8 600.917 1383.07 592.417 1389.43 595.858 C 1413.38 608.809 1407.08 643.27 1392.01 659.499 C 1351.09 666.441 1278.33 656.177 1237.73 646.188 C 1248.45 604.905 1213.35 567.885 1180.52 548.666 C 1220.77 553.218 1261.43 552.918 1301.61 547.773 C 1326.54 544.392 1347.61 537.919 1363.83 516.843 C 1383.03 495.218 1376.44 439.529 1351.68 424.231 C 1306.32 396.218 1217.01 417.87 1167.97 425.761 z"/>
  <path transform="translate(0,0)" fill="rgb(11,13,16)" d="M 1277.78 594.203 L 1314.92 584.094 C 1346.83 575.207 1391.54 561.553 1409.74 531.987 C 1415.8 522.146 1419.27 509.786 1425.21 499.687 L 1425.83 504.889 C 1424.09 520.391 1410.24 545.899 1397.16 554.953 C 1360.63 580.254 1310.72 592.426 1267.33 599.598 C 1266.88 599.672 1266.15 599.394 1265.71 599.247 C 1269.82 598.044 1272.82 597.297 1277.02 596.451 L 1277.78 594.203 z"/>
  <path transform="translate(0,0)" fill="rgb(239,235,225)" d="M 1425.83 504.889 C 1424.09 520.391 1410.24 545.899 1397.16 554.953 C 1360.63 580.254 1310.72 592.426 1267.33 599.598 C 1266.88 599.672 1266.15 599.394 1265.71 599.247 C 1269.82 598.044 1272.82 597.297 1277.02 596.451 C 1300.38 591.705 1323.4 585.405 1345.92 577.595 C 1370.63 568.828 1399.59 556.184 1412.76 532.672 C 1417.48 524.248 1421.53 513.887 1425.83 504.889 z"/>
  <path transform="translate(0,0)" fill="rgb(250,246,224)" d="M 1425.46 497.978 C 1425.49 492.904 1427.94 476.824 1429.45 472.005 L 1430.96 471.668 L 1431.63 473.71 C 1430.25 480.891 1428.12 491.127 1425.46 497.978 z"/>
  <path transform="translate(0,0)" fill="rgb(46,46,39)" d="M 1343.43 606.706 C 1353.85 609.94 1359.45 610.777 1369.41 615.58 C 1361.28 613.977 1351.02 610.824 1344.01 609.613 L 1343.43 606.706 z"/>
  <path transform="translate(0,0)" fill="rgb(218,0,5)" d="M 1291.65 340.434 C 1299.73 339.768 1307.57 340.58 1315.65 341.154 C 1312.73 348.126 1306.33 359.442 1302.66 366.483 C 1295.73 379.537 1289.27 392.83 1283.27 406.337 C 1272.15 406.616 1261.04 407.257 1249.96 408.259 C 1242.32 409.266 1234.85 409.818 1227.18 410.433 C 1233.86 391.345 1249.53 361.032 1260.27 343.85 C 1270.94 341.948 1280.86 341.232 1291.65 340.434 z"/>
  <path transform="translate(0,0)" fill="rgb(11,13,16)" d="M 1408.62 455.519 C 1413.17 456.959 1416.94 457.803 1418.34 462.944 C 1418.09 466.168 1417.95 466.245 1415.74 468.78 C 1410 468.069 1407.45 468.226 1405.17 462.646 C 1405.51 458.87 1406.08 458.409 1408.62 455.519 z"/>
  <path transform="translate(0,0)" fill="rgb(11,13,16)" d="M 1395.87 619.55 C 1405.38 629.621 1393.87 648.116 1385.73 655.916 L 1384.41 655.382 C 1394.77 642.223 1395.96 635.933 1395.87 619.55 z"/>
  <path transform="translate(0,0)" fill="rgb(38,60,97)" d="M 1874.06 865.302 C 1873.99 880.027 1860.37 908.673 1852.63 921.201 C 1819.44 974.912 1743.42 975.237 1708.89 922.127 C 1700.22 908.786 1696.55 903.659 1693.53 887.615 C 1677.42 801.959 1720.56 667.666 1831.92 733.117 C 1843.97 740.202 1864.11 766.218 1866.43 780.011 C 1879.08 810.77 1880.42 832.884 1874.06 865.302 z"/>
  <path transform="translate(0,0)" fill="rgb(171,188,192)" d="M 1866.43 780.011 C 1879.08 810.77 1880.42 832.884 1874.06 865.302 C 1872.47 864.619 1871.82 864.206 1870.33 863.296 C 1869.37 859.531 1872.44 834.342 1872.71 826.864 C 1873.15 814.265 1865.5 787.839 1866.43 780.011 z"/>
  <path transform="translate(0,0)" fill="rgb(0,10,29)" d="M 1772.61 728.343 C 1788.79 727.249 1804.93 731.144 1818.83 739.503 C 1838.12 751.294 1854.2 776.092 1858.86 798.059 C 1868.59 843.839 1862.14 902.053 1819.35 929.606 C 1809.64 935.858 1801.32 937.927 1790.37 940.482 C 1772.44 942.817 1756.19 937.511 1741.76 926.928 C 1678.67 880.678 1681.05 739.522 1772.61 728.343 z"/>
  <path transform="translate(0,0)" fill="rgb(0,10,29)" d="M 1706.99 809.716 C 1727.26 702.632 1845.44 726.388 1852.77 817.977 C 1853.29 825.76 1854.32 836.77 1853.13 844.273 C 1854.87 882.911 1817.58 939.118 1774.41 931.744 C 1718.42 922.179 1701.25 858.989 1706.99 809.716 z"/>
  <path transform="translate(0,0)" fill="url(#Gradient6)" d="M 1807.16 774.482 C 1810.29 774.458 1812.37 775.629 1814.5 777.922 C 1845.22 810.994 1842.44 866.553 1811.43 898.516 C 1795.49 914.958 1775.63 918.946 1755.4 908.335 C 1755.73 904.898 1756.02 901.383 1756.52 897.973 C 1758.98 884.88 1761.72 871.84 1764.74 858.862 C 1766.37 853.225 1767.81 847.534 1769.06 841.799 L 1769.06 841.291 L 1773.88 841.758 C 1778.61 844.805 1779.79 848.49 1781.25 853.894 C 1783.9 862.514 1792.4 896.439 1797.11 900.926 C 1797.45 893.864 1786.82 860.3 1784.32 851.879 C 1782.37 847.491 1782.24 845.784 1781.49 841.078 C 1781.63 839.032 1782.21 837.317 1782.81 835.38 L 1786.3 834.336 C 1788.86 832.906 1790.55 832.217 1793.27 831.095 L 1792.82 829.748 L 1793.49 826.753 C 1801.76 827.048 1818.62 818.966 1827.07 815.462 L 1829.68 814.837 C 1826 798.82 1816.99 786.96 1807.16 774.482 z"/>
  <path transform="translate(0,0)" fill="url(#Gradient5)" d="M 1773.88 841.758 C 1778.61 844.805 1779.79 848.49 1781.25 853.894 C 1783.9 862.514 1792.4 896.439 1797.11 900.926 C 1783.04 908.845 1773.91 911.437 1758.53 906.358 C 1760.18 894.403 1763.92 876.058 1767.07 864.532 C 1768.32 858.172 1771.44 847.675 1773.88 841.758 z"/>
  <path transform="translate(0,0)" fill="rgb(38,60,97)" d="M 1773.88 841.758 C 1778.61 844.805 1779.79 848.49 1781.25 853.894 C 1771.15 862.259 1780.75 888.394 1774.73 899.55 C 1771.41 901.892 1772.93 901.377 1769 901.645 C 1767.75 900.792 1766.14 900.098 1766.17 898.235 C 1766.34 888.133 1770.33 874.448 1767.07 864.532 C 1768.32 858.172 1771.44 847.675 1773.88 841.758 z"/>
  <path transform="translate(0,0)" fill="rgb(15,33,61)" d="M 1829.68 814.837 C 1833.22 834.98 1833.15 844.167 1826.8 863.892 C 1816.66 856.369 1803.63 850.028 1792.74 842.946 C 1789.54 841.057 1785.96 839.591 1784.56 836.422 L 1786.3 834.336 C 1788.86 832.906 1790.55 832.217 1793.27 831.095 L 1792.82 829.748 L 1793.49 826.753 C 1801.76 827.048 1818.62 818.966 1827.07 815.462 L 1829.68 814.837 z"/>
  <path transform="translate(0,0)" fill="rgb(38,60,97)" d="M 1793.27 831.095 C 1809.23 834.504 1818.16 835.157 1832.13 844.108 C 1822.81 842.41 1813.22 840.499 1803.78 839.633 C 1797.9 839.095 1797 838.838 1792.74 842.946 C 1789.54 841.057 1785.96 839.591 1784.56 836.422 L 1786.3 834.336 C 1788.86 832.906 1790.55 832.217 1793.27 831.095 z"/>
  <path transform="translate(0,0)" fill="rgb(15,33,61)" d="M 1784.32 851.879 C 1790.33 851.298 1794.62 857.35 1799.46 857.467 C 1799.62 855.983 1799.71 854.698 1799.8 853.207 L 1800.95 852.331 C 1827.29 867.412 1829.4 867.748 1807.34 892.259 C 1804.5 895.413 1800.67 898.627 1797.11 900.926 C 1797.45 893.864 1786.82 860.3 1784.32 851.879 z"/>
  <path transform="translate(0,0)" fill="rgb(38,60,97)" d="M 1781.49 841.078 C 1785.31 842.071 1798.44 849.869 1800.95 852.331 L 1799.8 853.207 C 1799.71 854.698 1799.62 855.983 1799.46 857.467 C 1794.62 857.35 1790.33 851.298 1784.32 851.879 C 1782.37 847.491 1782.24 845.784 1781.49 841.078 z"/>
  <path transform="translate(0,0)" fill="rgb(15,33,61)" d="M 1717.31 808.181 L 1720.07 808.632 C 1728.72 817.119 1748.92 823.076 1759.29 829.339 C 1763.32 830.79 1762.97 829.975 1765.21 832.828 C 1765.51 834.976 1765.7 836.834 1766.23 838.945 L 1769.06 841.291 L 1769.06 841.799 C 1767.81 847.534 1766.37 853.225 1764.74 858.862 C 1761.72 871.84 1758.98 884.88 1756.52 897.973 C 1752.14 897.331 1748.08 897.291 1744.76 894.642 C 1744.5 892.598 1744.03 891.864 1743.18 890.037 L 1738.89 895.887 L 1735.18 897.112 C 1734.14 895.749 1733.15 894.343 1732.22 892.898 C 1717.32 869.837 1710.79 838.11 1716.59 811.219 L 1717.31 808.181 z"/>
  <path transform="translate(0,0)" fill="rgb(38,60,97)" d="M 1736.9 864.31 C 1740.83 860.508 1764.13 843.359 1769.06 841.799 C 1767.81 847.534 1766.37 853.225 1764.74 858.862 C 1761.72 871.84 1758.98 884.88 1756.52 897.973 C 1752.14 897.331 1748.08 897.291 1744.76 894.642 C 1744.5 892.598 1744.03 891.864 1743.18 890.037 L 1738.89 895.887 C 1730 885.508 1741.53 874.275 1736.9 864.31 z"/>
  <path transform="translate(0,0)" fill="rgb(15,33,61)" d="M 1743.18 890.037 C 1744.62 885.6 1757.94 859.603 1761.69 856.208 L 1763.56 856.436 L 1764.74 858.862 C 1761.72 871.84 1758.98 884.88 1756.52 897.973 C 1752.14 897.331 1748.08 897.291 1744.76 894.642 C 1744.5 892.598 1744.03 891.864 1743.18 890.037 z"/>
  <path transform="translate(0,0)" fill="rgb(38,60,97)" d="M 1719.71 829.632 C 1736.88 825.47 1745.67 830.284 1759.29 829.339 C 1763.32 830.79 1762.97 829.975 1765.21 832.828 C 1765.51 834.976 1765.7 836.834 1766.23 838.945 L 1763.31 840.597 C 1753.43 835.28 1730.55 841.588 1720.19 844.155 L 1719.71 829.632 z"/>
  <path transform="translate(0,0)" fill="rgb(239,235,225)" d="M 1763.31 840.597 L 1766.23 838.945 L 1769.06 841.291 L 1769.06 841.799 C 1764.13 843.359 1740.83 860.508 1736.9 864.31 C 1732.51 867.507 1728.03 870.038 1723.37 872.777 C 1731.55 863.02 1752.47 848.609 1763.31 840.597 z"/>
  <path transform="translate(0,0)" fill="rgb(254,253,208)" d="M 1706.99 809.716 L 1716.59 811.219 C 1710.79 838.11 1717.32 869.837 1732.22 892.898 C 1733.15 894.343 1734.14 895.749 1735.18 897.112 C 1736.87 899.256 1738.61 901.357 1740.4 903.415 C 1749.04 913.187 1765.26 922.556 1778.45 922.063 C 1822.12 920.431 1842.35 876.472 1844.07 839.077 C 1843.97 832.964 1843.82 826.851 1843.63 820.74 C 1845.91 816.93 1848.67 820.714 1852.77 817.977 C 1853.29 825.76 1854.32 836.77 1853.13 844.273 C 1854.87 882.911 1817.58 939.118 1774.41 931.744 C 1718.42 922.179 1701.25 858.989 1706.99 809.716 z"/>
  <path transform="translate(0,0)" fill="rgb(239,235,225)" d="M 1843.63 820.74 C 1845.91 816.93 1848.67 820.714 1852.77 817.977 C 1853.29 825.76 1854.32 836.77 1853.13 844.273 C 1852.87 838.05 1853.5 836.484 1849.29 832.091 L 1847.31 832.097 C 1844.49 834.874 1845.14 834.947 1844.07 839.077 C 1843.97 832.964 1843.82 826.851 1843.63 820.74 z"/>
  <path transform="translate(0,0)" fill="rgb(250,246,224)" d="M 1735.66 769.83 C 1748.7 784.642 1758.83 807.308 1770.27 820.017 C 1770.65 806.079 1770.72 803.057 1769.61 788.33 C 1769.95 783.95 1769.95 779.066 1771.74 775.204 C 1772.43 783.404 1773 792.837 1773.99 800.907 C 1774.24 806.631 1773.69 814.333 1777.51 818.263 C 1782.11 818.323 1786.51 809.037 1788.25 804.919 C 1791.6 798.811 1801.67 777.782 1806.67 775.466 L 1807.16 774.482 C 1816.99 786.96 1826 798.82 1829.68 814.837 L 1827.07 815.462 C 1818.62 818.966 1801.76 827.048 1793.49 826.753 L 1792.82 829.748 L 1793.27 831.095 C 1790.55 832.217 1788.86 832.906 1786.3 834.336 L 1782.81 835.38 C 1782.21 837.317 1781.63 839.032 1781.49 841.078 C 1782.24 845.784 1782.37 847.491 1784.32 851.879 C 1786.82 860.3 1797.45 893.864 1797.11 900.926 C 1792.4 896.439 1783.9 862.514 1781.25 853.894 C 1779.79 848.49 1778.61 844.805 1773.88 841.758 L 1769.06 841.291 L 1766.23 838.945 C 1765.7 836.834 1765.51 834.976 1765.21 832.828 C 1762.97 829.975 1763.32 830.79 1759.29 829.339 C 1748.92 823.076 1728.72 817.119 1720.07 808.632 C 1729.09 810.044 1736.5 815.513 1741.76 816.592 C 1747.4 820.029 1760.18 825.209 1766.39 827.772 C 1762.9 817.779 1759.4 811.819 1753.43 803.043 C 1750.16 794.692 1740.46 782.37 1735.66 769.83 z"/>
  <path transform="translate(0,0)" fill="url(#Gradient4)" d="M 1807.16 774.482 C 1816.99 786.96 1826 798.82 1829.68 814.837 L 1827.07 815.462 C 1818.62 818.966 1801.76 827.048 1793.49 826.753 L 1792.82 829.748 C 1789.87 827.808 1786.77 825.456 1785.28 822.136 C 1783.27 817.664 1803.85 783.089 1806.67 775.466 L 1807.16 774.482 z"/>
  <path transform="translate(0,0)" fill="rgb(239,235,225)" d="M 1793.49 826.753 C 1796.22 822.848 1821.78 813.279 1827.07 815.462 C 1818.62 818.966 1801.76 827.048 1793.49 826.753 z"/>
  <path transform="translate(0,0)" fill="url(#Gradient3)" d="M 1706.99 809.716 C 1727.26 702.632 1845.44 726.388 1852.77 817.977 C 1848.67 820.714 1845.91 816.93 1843.63 820.74 C 1843.07 819.325 1842.32 813.903 1841.95 812.013 C 1836.63 784.658 1819.76 758.657 1790.97 751.041 C 1776.78 747.427 1761.73 749.683 1749.22 757.301 C 1729.78 769.028 1722.59 787.395 1717.31 808.181 L 1716.59 811.219 L 1706.99 809.716 z"/>
  <path transform="translate(0,0)" fill="rgb(15,33,61)" d="M 1786.2 772.736 C 1785.94 779.575 1784.48 800.175 1788.25 804.919 C 1786.51 809.037 1782.11 818.323 1777.51 818.263 C 1773.69 814.333 1774.24 806.631 1773.99 800.907 C 1776.8 803.971 1776.49 806.436 1776.72 810.366 C 1778.67 809.775 1778.65 809.904 1780.14 808.552 C 1781.71 790.142 1779.42 791.892 1786.2 772.736 z"/>
  <path transform="translate(0,0)" fill="rgb(15,33,61)" d="M 1739.89 799.795 C 1744.02 801.948 1751.07 810.748 1754.29 808.567 L 1753.43 803.043 C 1759.4 811.819 1762.9 817.779 1766.39 827.772 C 1760.18 825.209 1747.4 820.029 1741.76 816.592 C 1748.61 816.095 1747.96 817.942 1753.7 819.761 C 1750.06 811.543 1745.49 809.146 1740.58 800.957 L 1739.89 799.795 z"/>
  <path transform="translate(0,0)" fill="rgb(239,235,225)" d="M 1769.61 788.33 C 1769.03 779.601 1768.31 773.467 1769.58 764.763 L 1770.29 765.452 L 1769.5 765.79 L 1770.46 766.133 C 1771.32 769.042 1771.46 772.161 1771.74 775.204 C 1769.95 779.066 1769.95 783.95 1769.61 788.33 z"/>
  <path transform="translate(0,0)" fill="rgb(15,33,61)" d="M 1662.46 778.739 C 1665.88 780.631 1664.99 779.501 1666.25 782.768 L 1666.62 782.449 C 1671.64 781.778 1676.67 781.145 1681.7 780.547 C 1678.88 789.276 1676.86 796.811 1674.61 805.712 C 1672.56 814.058 1668.23 832.775 1664.88 839.94 C 1654.71 865.201 1638.56 898.772 1612.01 910.933 C 1598.65 917.049 1563.83 918.29 1547.4 919.448 C 1492.82 923.253 1438.16 925.582 1383.46 926.433 C 1357.57 926.909 1322.23 925.956 1297.45 927.447 C 1305.63 912.756 1310.62 904.158 1316.64 888.277 C 1342.35 887.921 1525.13 882.367 1535.46 872.606 C 1541.57 866.826 1543.76 853.906 1547.27 846.214 C 1551.29 834.128 1554.6 823.602 1556.74 811.008 C 1554.59 810.955 1553.73 810.645 1551.65 810.187 C 1553.35 803.731 1554.31 793.913 1555.19 787.068 L 1555.57 784.704 L 1559.88 785.769 L 1560.17 786.689 C 1566.07 785.926 1579.74 786.417 1586.73 786.039 C 1610.91 784.735 1637.24 785.265 1661.23 783.144 L 1662.46 778.739 z"/>
  <path transform="translate(0,0)" fill="rgb(38,60,97)" d="M 1662.46 778.739 C 1665.88 780.631 1664.99 779.501 1666.25 782.768 L 1666.62 782.449 C 1671.64 781.778 1676.67 781.145 1681.7 780.547 C 1678.88 789.276 1676.86 796.811 1674.61 805.712 C 1672.56 814.058 1668.23 832.775 1664.88 839.94 C 1650.81 841.15 1554.19 848.952 1547.27 846.214 C 1551.29 834.128 1554.6 823.602 1556.74 811.008 C 1554.59 810.955 1553.73 810.645 1551.65 810.187 C 1553.35 803.731 1554.31 793.913 1555.19 787.068 L 1555.57 784.704 L 1559.88 785.769 L 1560.17 786.689 C 1566.07 785.926 1579.74 786.417 1586.73 786.039 C 1610.91 784.735 1637.24 785.265 1661.23 783.144 L 1662.46 778.739 z"/>
  <path transform="translate(0,0)" fill="rgb(254,253,208)" d="M 1560.17 786.689 C 1566.07 785.926 1579.74 786.417 1586.73 786.039 C 1610.91 784.735 1637.24 785.265 1661.23 783.144 C 1659.56 790.686 1657.86 799.329 1655.73 806.669 C 1640.78 806.928 1565.15 812.58 1557.08 810.274 L 1556.74 811.008 C 1554.59 810.955 1553.73 810.645 1551.65 810.187 C 1553.35 803.731 1554.31 793.913 1555.19 787.068 L 1555.57 784.704 L 1559.88 785.769 L 1560.17 786.689 z"/>
  <path transform="translate(0,0)" fill="rgb(11,13,16)" d="M 1555.19 787.068 L 1555.57 784.704 L 1559.88 785.769 L 1560.17 786.689 C 1559.31 793.521 1558.31 803.711 1557.08 810.274 L 1556.74 811.008 C 1554.59 810.955 1553.73 810.645 1551.65 810.187 C 1553.35 803.731 1554.31 793.913 1555.19 787.068 z"/>
  <path transform="translate(0,0)" fill="rgb(254,253,208)" d="M 1666.62 782.449 C 1671.64 781.778 1676.67 781.145 1681.7 780.547 C 1678.88 789.276 1676.86 796.811 1674.61 805.712 C 1670.26 805.928 1665.08 806.603 1661.15 805.132 C 1663.14 798.258 1664.72 789.86 1666.25 782.768 L 1666.62 782.449 z"/>
  <path transform="translate(0,0)" fill="rgb(11,13,16)" d="M 1662.46 778.739 C 1665.88 780.631 1664.99 779.501 1666.25 782.768 C 1664.72 789.86 1663.14 798.258 1661.15 805.132 C 1659.49 810.03 1656.89 819.25 1652.98 822.261 C 1651.12 818.325 1654.32 810.88 1655.73 806.669 C 1657.86 799.329 1659.56 790.686 1661.23 783.144 L 1662.46 778.739 z"/>
  <path transform="translate(0,0)" fill="rgb(29,87,124)" d="M 1475.12 535.18 C 1489.78 536.628 1509.01 546.417 1520.51 555.573 C 1531.84 564.602 1529.98 588.513 1530.27 602.949 C 1526.67 605.741 1520.85 609.319 1516.91 611.911 C 1513.65 637.069 1500.41 628.436 1482.46 633.918 C 1480.1 636.792 1479.2 638.447 1475.76 639.795 C 1453.51 637.509 1445.88 628.435 1428.58 615.055 C 1427.97 613.663 1427.15 611.087 1426.67 609.717 C 1423.28 599.891 1424.4 604.815 1420.31 602.787 C 1418.49 594.98 1422.01 572.15 1426.79 564.137 C 1435.86 548.919 1458.67 539.66 1475.12 535.18 z"/>
  <path transform="translate(0,0)" fill="rgb(160,209,200)" d="M 1460 564.478 C 1464.75 566.387 1477.08 588.9 1483.04 596.019 C 1482.64 588.941 1482.6 584.701 1483.02 577.635 C 1485.56 574.197 1487.95 570.453 1490.31 566.871 C 1491.37 580.59 1490.93 596.127 1490.83 610.021 L 1490.53 611.216 C 1481.89 604.933 1473.68 598.076 1465.96 590.69 C 1466.07 597.36 1465.84 604.206 1463.7 610.525 L 1462.52 611.088 C 1457.89 604.029 1458.08 573.232 1460 564.478 z"/>
  <path transform="translate(0,0)" fill="rgb(254,253,208)" d="M 1006.24 447.444 C 1009.23 446.999 1009.39 446.951 1012.32 447.521 L 1013.49 449.322 C 1011.5 457.916 954.077 557.204 946.145 570.503 C 927.507 570.592 908.871 571.026 890.249 571.803 C 886.902 571.905 882.137 572.536 879.398 571.127 C 892.462 547.491 911.404 521.141 925.44 497.361 C 930.408 488.945 951.251 455.213 956.486 449.568 C 973.279 448.316 989.457 448.117 1006.24 447.444 z"/>
  <path transform="translate(0,0)" fill="url(#Gradient2)" d="M 1548.89 610.737 C 1552.1 608.19 1554.49 606.851 1555.91 603.075 C 1556.04 600.878 1555.81 597.111 1554.72 595.206 C 1540.26 569.962 1532.86 541.631 1520.59 515.321 C 1518.06 510.538 1512.65 498.932 1508.84 495.908 C 1490.34 481.253 1464.31 476.452 1444.24 464.337 C 1442.6 463.341 1443.04 458.888 1443.74 457.399 C 1468.31 465.611 1503.01 480.939 1526.81 491.507 C 1572.57 511.826 1636.94 539.539 1677.16 568.718 C 1642.04 569.202 1607.63 570 1572.91 575.19 C 1567.71 575.968 1565.48 577.283 1562.27 573.024 C 1561.39 564.77 1547.23 533.811 1543.29 524.864 C 1544.79 521.71 1546.45 518.46 1548.01 515.319 C 1548.79 511.692 1549.51 511.315 1548.27 508.291 C 1544.48 509.551 1543.64 511.69 1541.5 515.385 C 1535.27 511.266 1527.14 505.509 1520.58 502.367 C 1525.45 516.141 1531.67 529.894 1537.26 543.519 C 1544.21 560.475 1550.3 579.606 1560.29 594.947 C 1565.46 602.889 1574.55 611.474 1581.44 618.235 C 1568.99 611.006 1563.14 610.949 1548.89 610.737 z"/>
  <path transform="translate(0,0)" fill="rgb(218,0,5)" d="M 1548.01 515.319 C 1575.16 527.585 1620.1 546.186 1643.88 563.648 C 1620 563.878 1585.02 565.593 1562.27 573.024 C 1561.39 564.77 1547.23 533.811 1543.29 524.864 C 1544.79 521.71 1546.45 518.46 1548.01 515.319 z"/>
  <path transform="translate(0,0)" fill="rgb(254,253,208)" d="M 995.934 428.423 C 1047.66 426.506 1102.93 429.071 1154.65 430.835 C 1151.93 436.902 1151.07 439.886 1149.32 446.364 C 1138.4 444.622 1114.55 443.994 1102.55 443.421 C 1066.7 441.549 1030.81 440.671 994.91 440.787 C 911.232 441.095 918.035 448.857 860.924 506.38 C 836.153 530.898 811.567 555.603 787.168 580.492 L 772.239 583.536 C 801.992 552.201 831.986 521.096 862.22 490.225 C 884.613 467.709 911.722 434.242 945.179 431.183 C 961.967 429.649 979.068 429.441 995.934 428.423 z"/>
  <path transform="translate(0,0)" fill="rgb(254,253,208)" d="M 219.573 697.328 C 231.939 695.788 240.442 700.238 246.864 710.486 C 249.03 737.054 231.673 760.777 203.273 754.223 C 187.066 745.415 195.379 730.208 181.903 721.487 C 180.591 720.638 172.596 720.973 170.431 721.038 C 183.984 707.184 200.351 699.722 219.573 697.328 z"/>
  <path transform="translate(0,0)" fill="rgb(254,253,208)" d="M 1015.38 536.286 C 1011.11 534.47 1008.72 534.544 1004.93 531.448 C 1004.69 530.553 1003.94 527.115 1005.31 526.737 C 1015.47 523.124 1009.48 509.625 1022.48 507.305 C 1031.63 505.669 1069.68 514.356 1070.56 524.726 C 1069.99 525.283 1069.73 525.591 1069.11 526.014 C 1063.43 529.861 1035.18 519.009 1026.48 517.767 C 1033.27 522.471 1052.78 527.142 1055.78 534.838 C 1054.39 537.435 1053.95 537.529 1051.42 539.24 C 1045.08 538.137 1032.42 530.753 1019.44 527.864 C 1027.83 534.882 1037.04 537.133 1044.67 543.517 C 1044.29 545.777 1043.21 546.582 1041.66 548.292 C 1040.58 548.295 1022.13 540.94 1018.04 539.819 C 1023.77 544.159 1032.51 547.206 1034.83 553.498 C 1034.77 556.636 1034.14 556.984 1032.05 559.61 L 1027.97 562.74 C 1028.75 564.548 1028.48 564.755 1028.4 566.84 C 1023.33 570.856 1011.93 561.066 1004.86 562.849 C 1003.9 563.09 999.031 562.909 997.651 562.882 C 996.397 559.321 1003.99 555.515 1002.2 547.553 C 1001.39 543.99 1001.4 542.601 1003.3 539.811 C 1007.46 537.245 1010.56 537.068 1015.38 536.286 z"/>
  <path transform="translate(0,0)" fill="rgb(11,13,16)" d="M 1008.15 549.446 C 1017.74 552.247 1023.62 554.173 1032.05 559.61 L 1027.97 562.74 C 1023.87 559.117 1013.28 552.716 1008.15 549.446 z"/>
  <path transform="translate(0,0)" fill="rgb(254,253,208)" d="M 1217.02 451 L 1218.36 451.723 C 1218.79 456.474 1217.63 463.638 1217.02 468.563 C 1207.96 472.755 1204.44 473.802 1200.59 483.42 L 1200.23 484.336 L 1197.28 483.439 L 1196.43 484.482 C 1199.72 489.433 1211.5 496.304 1216.83 499.25 C 1217.8 507.226 1218.61 515.22 1219.26 523.23 L 1208.56 518.097 C 1193.35 509.554 1184.43 499.678 1175.9 484.799 C 1185.11 466.488 1198.19 457.795 1217.02 451 z"/>
  <path transform="translate(0,0)" fill="rgb(254,253,208)" d="M 1277.87 445.053 C 1296.9 451.09 1309.25 460.237 1321.75 475.388 C 1313.93 487.703 1306.66 495.541 1294.48 503.854 C 1288.02 507.992 1282.28 510.34 1275.23 513.079 C 1277.58 504.685 1279.82 496.266 1281.98 487.822 C 1286.95 484.864 1292.85 482.193 1293.48 476.032 C 1291.85 470.139 1284.78 466.986 1279.43 463.739 L 1277.87 445.053 z"/>
  <path transform="translate(0,0)" fill="rgb(15,33,61)" d="M 1165.69 427.746 C 1166.41 428.6 1167.36 429.433 1166.96 430.916 C 1164.07 441.651 1158.83 452.599 1157.7 463.855 C 1156.16 479.096 1156.22 498.943 1162.5 512.873 C 1170.47 530.543 1189.13 535.229 1206.55 538.069 C 1213.39 539.182 1218.5 538.757 1225.19 541.272 L 1224.72 542.354 L 1223 542.51 C 1211.43 542.709 1199.83 543.109 1188.42 541.36 C 1149.12 535.336 1146.47 489.29 1151.4 457.963 C 1152.86 448.647 1157.65 433.26 1165.69 427.746 z"/>
  <path transform="translate(0,0)" fill="url(#Gradient1)" d="M 156.553 723.964 C 156.577 725.943 140.195 759.946 138.194 767.547 C 133.392 785.781 125.788 798.459 153.792 794.243 C 181.634 790.051 200.662 776.149 224.275 762.843 C 220.553 766.69 216.548 770.258 212.594 773.867 C 195.192 787.738 177.747 798.362 155.91 803.506 C 148.706 805.203 126.509 810.089 126.624 797.535 C 126.814 776.78 143.853 739.304 156.553 723.964 z"/>
  <path transform="translate(0,0)" fill="rgb(29,87,124)" d="M 225.002 671.187 C 238.987 669.548 255.284 671.567 262.864 685.563 C 267.935 694.926 265.24 703.026 262.213 712.541 C 258.129 701.321 257.071 696.382 247.183 689.955 C 245.929 689.323 244.656 688.731 243.364 688.179 C 226.241 680.93 203.084 686.77 186.566 693.472 C 199.911 681.721 207.256 675.059 225.002 671.187 z"/>
  <path transform="translate(0,0)" fill="rgb(11,13,16)" fill-opacity="0.0196078" d="M 491.986 952.886 C 514.861 946.873 539.339 949.253 563.253 949.842 C 586.118 950.571 608.991 950.993 631.867 951.108 C 640.389 952.376 680.438 952.504 690.173 951.856 L 794.255 951.904 C 803.033 951.911 835.152 951.412 841.687 952.831 C 837.924 955.055 737.217 954.13 724.694 953.91 C 647.07 952.546 569.557 955.114 491.986 952.886 z"/>
  <path transform="translate(0,0)" fill="rgb(15,33,61)" d="M 170.671 736.405 C 175.242 737.415 177.629 741.3 180.473 744.901 C 181.297 764.916 196.149 771.99 166.427 776.917 L 149.622 777.216 C 152.435 768.289 164.82 743.044 170.671 736.405 z"/>
  <path transform="translate(0,0)" fill="rgb(38,60,97)" d="M 1082.15 532.352 C 1103.96 532.62 1126.03 542.72 1138.81 560.767 C 1140.5 563.158 1141.57 565.277 1141.03 568.143 C 1137.54 568.055 1127.27 556.857 1122.16 553.581 C 1115.68 549.422 1113.29 547.994 1106.27 544.562 C 1085.37 537.118 1068.13 537.325 1052.6 555.124 C 1049.6 558.551 1046.25 562.023 1042.76 564.912 L 1041.82 565.674 C 1049.57 547.266 1061.34 534.068 1082.15 532.352 z"/>
  <path transform="translate(0,0)" fill="rgb(15,33,61)" d="M 1441.54 470.199 C 1443.02 471.054 1444.18 471.845 1445.59 472.786 C 1448.38 480.996 1446.71 494.699 1444.99 503.227 C 1443.11 512.612 1439.81 516.263 1432.62 522.109 C 1432.17 523.024 1431.84 523.155 1431.07 523.921 C 1430.15 521.857 1440.27 476.116 1441.54 470.199 z"/>
  <path transform="translate(0,0)" fill="rgb(238,11,7)" d="M 1188.57 374.074 C 1188.49 375.753 1183.31 383.142 1181.85 385.455 C 1174.51 397.122 1168.35 409.257 1161.66 421.281 C 1160.08 424.116 1157.72 423.996 1154.65 424.634 L 1154.46 422.59 C 1160.99 408.684 1177.49 384.677 1188.57 374.074 z"/>
  <path transform="translate(0,0)" fill="rgb(15,33,61)" fill-opacity="0.592157" d="M 631.867 951.108 C 643.869 950.881 679.516 950.346 690.173 951.856 C 680.438 952.504 640.389 952.376 631.867 951.108 z"/>
  <path transform="translate(0,0)" fill="rgb(7,7,20)" fill-opacity="0.756863" d="M 1880.42 965.161 C 1899.61 964.833 1928.12 967.55 1947.53 969.122 C 1944.77 969.941 1942.17 970.166 1940.63 972.053 C 1943.98 973.142 1945.52 973.11 1948.99 973.287 C 1937.98 976.007 1884.27 981.994 1873.4 980.835 C 1868.41 979.826 1864.3 978.729 1865.75 973.061 C 1872.85 965.552 1875.88 969.143 1880.42 965.161 z"/>
  <path transform="translate(0,0)" fill="rgb(11,13,16)" fill-opacity="0.47451" d="M 1947.53 969.122 C 1950.47 969.178 1950.42 968.651 1952 970.14 C 1950.75 970.744 1950.27 970.998 1948.95 971.458 L 1957.87 972.104 L 1958.11 972.783 C 1955.16 973.754 1952.04 974.086 1948.99 973.287 C 1945.52 973.11 1943.98 973.142 1940.63 972.053 C 1942.17 970.166 1944.77 969.941 1947.53 969.122 z"/>
</svg>
