<?xml version="1.0"?>
<svg xmlns="http://www.w3.org/2000/svg" version="1.1" style="display: block;" viewBox="0 0 2048 2048" preserveAspectRatio="xMidYMid meet">
  <path transform="translate(0,0)" fill="rgb(33,25,71)" d="M 345.884 1251.42 C 344.963 1246.23 338.568 1228.13 336.669 1221.96 C 283.933 1050.56 302.442 853.337 385.117 694.525 C 473.743 524.284 629.19 389.798 813.558 333.378 C 965.707 286.501 1129.15 291.768 1277.97 348.343 C 1300.34 356.976 1321.82 366.348 1343.45 376.82 C 1354.62 382.151 1358.67 392.076 1350.72 402.451 C 1344.98 409.255 1333.83 407.761 1326 408.062 C 1201.7 412.845 1074.43 472.705 993.31 567.824 C 927.693 644.585 888.114 740.18 880.268 840.859 C 878.839 858.323 877.597 877.69 878.294 895.225 C 878.418 898.341 878.346 897.623 880.241 899.184 C 880.284 906.05 880.665 928.404 884.16 933.152 C 879.675 941.933 897.221 1003.22 901.247 1015.8 L 901.547 1016.72 C 988.43 1019.08 1064.1 999.5 1129.15 938.232 C 1133.62 934.024 1138.82 928.91 1142.79 924.359 C 1131.78 913.319 1118.21 901.011 1118.13 883.952 C 1117.98 848.362 1169.05 846.33 1196.21 843.356 C 1206.31 827.909 1210.99 807.868 1221.78 792.868 C 1231.28 779.658 1254.03 774.512 1267.56 784.497 C 1286.21 798.258 1292.54 824.211 1304.36 843.528 C 1332.87 845.823 1385.84 849.178 1381.03 888.616 C 1378.35 910.556 1350.16 928.38 1336.05 944.793 C 1341.49 976.337 1359.9 1026.2 1312.67 1033.31 C 1311.17 1033.54 1309.67 1033.74 1308.17 1033.91 C 1304.64 1046.41 1303.47 1057.26 1298.05 1069.59 C 1288.09 1092.27 1274.91 1110.93 1259.97 1130.4 C 1216.13 1187.85 1161.98 1236.64 1100.3 1274.29 C 1127.4 1290.36 1151.91 1303.99 1180.53 1317.16 C 1179.22 1319.63 1149.9 1334.47 1144.99 1336.35 C 1095.64 1361.8 1045.49 1385.67 994.616 1407.91 C 979.346 1414.62 964.006 1421.17 948.597 1427.55 C 941.001 1430.67 889.518 1445.54 922.472 1467.08 C 929.251 1471.51 974.893 1450.18 986.124 1445.39 C 1031.21 1426.16 1075.75 1405.65 1119.67 1383.89 C 1126.17 1380.66 1181.38 1352.2 1183.01 1352.3 C 1186.78 1348.33 1218.42 1331.05 1223.86 1331.54 C 1245.79 1337.35 1266.1 1342.96 1288.57 1346.66 C 1422 1368.65 1563.02 1326.78 1663.05 1235.88 C 1672.82 1229.58 1686.28 1206.23 1700.25 1214.89 C 1717.28 1225.46 1697.64 1263.7 1692 1277.83 C 1624.75 1446.16 1507.31 1574.18 1347.3 1657.97 C 1183.53 1741.86 993.568 1758.8 817.542 1705.21 C 715.984 1673.23 649.77 1634.32 566.766 1569.92 C 466.521 1584.73 238.094 1598.86 238.529 1445.12 C 238.691 1387.64 280.516 1326.75 316.684 1284.53 C 325.766 1273.92 335.741 1261.12 345.884 1251.42 z M 358.847 1285.75 C 347.282 1288.57 306.541 1346.27 298.457 1359.13 C 265.351 1411.79 247.029 1484.44 311.791 1521.29 C 363.058 1549.55 433.172 1548.94 490.392 1546.8 C 504.7 1546.12 522.71 1545.34 536.105 1543.07 C 534.705 1540.74 499.089 1506.05 492.074 1497.95 C 446.571 1445.42 409.109 1392.24 378.644 1329.58 C 372.648 1317.25 362.952 1298.49 358.847 1285.75 z"/>
  <path transform="translate(0,0)" fill="rgb(253,234,202)" d="M 1223.86 1331.54 C 1245.79 1337.35 1266.1 1342.96 1288.57 1346.66 C 1422 1368.65 1563.02 1326.78 1663.05 1235.88 C 1672.82 1229.58 1686.28 1206.23 1700.25 1214.89 C 1717.28 1225.46 1697.64 1263.7 1692 1277.83 C 1624.75 1446.16 1507.31 1574.18 1347.3 1657.97 C 1183.53 1741.86 993.568 1758.8 817.542 1705.21 C 715.984 1673.23 649.77 1634.32 566.766 1569.92 C 576.108 1569.94 599.973 1565.44 610.028 1563.73 C 636.68 1558.56 663.207 1552.77 689.588 1546.36 C 700.691 1543.72 711.765 1540.96 722.808 1538.08 C 717.669 1528.43 714.358 1517.92 713.041 1507.07 C 702.119 1509.85 691.223 1512.74 680.354 1515.72 C 677.722 1484.61 679.526 1466.86 693.486 1438.41 C 676.418 1424.22 606.887 1349.89 600.229 1332.56 C 632.743 1342.38 657.568 1349.09 691.091 1354.68 C 816.407 1375.57 953.044 1354.94 1065.35 1294.6 C 1066.82 1293.81 1068.28 1293.01 1069.73 1292.19 C 1089.71 1305.37 1122.59 1326.67 1144.99 1336.35 C 1095.64 1361.8 1045.49 1385.67 994.616 1407.91 C 979.346 1414.62 964.006 1421.17 948.597 1427.55 C 941.001 1430.67 889.518 1445.54 922.472 1467.08 C 929.251 1471.51 974.893 1450.18 986.124 1445.39 C 1031.21 1426.16 1075.75 1405.65 1119.67 1383.89 C 1126.17 1380.66 1181.38 1352.2 1183.01 1352.3 C 1186.78 1348.33 1218.42 1331.05 1223.86 1331.54 z"/>
  <path transform="translate(0,0)" fill="rgb(231,201,165)" d="M 1223.86 1331.54 C 1245.79 1337.35 1266.1 1342.96 1288.57 1346.66 C 1422 1368.65 1563.02 1326.78 1663.05 1235.88 C 1672.82 1229.58 1686.28 1206.23 1700.25 1214.89 C 1717.28 1225.46 1697.64 1263.7 1692 1277.83 C 1624.75 1446.16 1507.31 1574.18 1347.3 1657.97 C 1183.53 1741.86 993.568 1758.8 817.542 1705.21 C 715.984 1673.23 649.77 1634.32 566.766 1569.92 C 576.108 1569.94 599.973 1565.44 610.028 1563.73 C 636.68 1558.56 663.207 1552.77 689.588 1546.36 C 700.731 1568.6 715.481 1586.98 736.654 1600.5 C 764.027 1617.73 797.146 1623.32 828.659 1616.03 C 859.468 1609.03 886.159 1589.92 902.711 1563.01 C 960.564 1585.63 1034.13 1599.23 1096.02 1600.95 C 1261.87 1605.88 1423.01 1545.4 1544.65 1432.56 C 1562.95 1415.89 1579.53 1398.54 1596.16 1380.26 C 1605.49 1370.01 1616.05 1353.3 1625.7 1344.74 C 1636.09 1327.85 1646.88 1302.74 1654.96 1284.34 C 1551.1 1363.79 1419.66 1398.15 1290.2 1379.7 C 1256.39 1375.08 1214.83 1365.16 1183.01 1352.3 C 1186.78 1348.33 1218.42 1331.05 1223.86 1331.54 z"/>
  <path transform="translate(0,0)" fill="rgb(33,25,71)" d="M 1223.86 1331.54 C 1245.79 1337.35 1266.1 1342.96 1288.57 1346.66 C 1422 1368.65 1563.02 1326.78 1663.05 1235.88 C 1672.82 1229.58 1686.28 1206.23 1700.25 1214.89 C 1717.28 1225.46 1697.64 1263.7 1692 1277.83 C 1624.75 1446.16 1507.31 1574.18 1347.3 1657.97 C 1183.53 1741.86 993.568 1758.8 817.542 1705.21 C 715.984 1673.23 649.77 1634.32 566.766 1569.92 C 576.108 1569.94 599.973 1565.44 610.028 1563.73 C 647.373 1591.99 687.388 1616.54 729.505 1637.03 C 891.884 1715.63 1078.93 1726.1 1249.07 1666.11 C 1380.86 1619.43 1495.48 1534.04 1577.92 1421.11 C 1593.96 1399.12 1613.89 1369.3 1625.7 1344.74 C 1636.09 1327.85 1646.88 1302.74 1654.96 1284.34 C 1551.1 1363.79 1419.66 1398.15 1290.2 1379.7 C 1256.39 1375.08 1214.83 1365.16 1183.01 1352.3 C 1186.78 1348.33 1218.42 1331.05 1223.86 1331.54 z"/>
  <path transform="translate(0,0)" fill="rgb(33,25,71)" d="M 713.041 1507.07 C 707.521 1461.58 737.554 1419.38 782.334 1409.7 C 827.114 1400.02 871.899 1426.04 885.662 1469.74 C 899.426 1513.44 877.638 1560.43 835.391 1578.16 C 793.145 1595.88 744.35 1578.51 722.808 1538.08 C 717.669 1528.43 714.358 1517.92 713.041 1507.07 z"/>
  <path transform="translate(0,0)" fill="rgb(114,214,226)" d="M 793.716 1439.76 C 825.173 1435.64 853.954 1457.97 857.781 1489.46 C 861.608 1520.96 839.013 1549.53 807.484 1553.06 C 776.371 1556.54 748.26 1534.31 744.483 1503.23 C 740.706 1472.15 762.674 1443.83 793.716 1439.76 z"/>
  <path transform="translate(0,0)" fill="rgb(73,162,179)" d="M 793.146 1463.63 C 811.207 1459.14 829.489 1470.13 834.002 1488.18 C 838.514 1506.24 827.553 1524.54 809.506 1529.08 C 791.421 1533.63 773.076 1522.64 768.553 1504.54 C 764.031 1486.45 775.047 1468.12 793.146 1463.63 z"/>
  <path transform="translate(0,0)" fill="rgb(231,201,165)" d="M 1148.6 1424.62 C 1184.38 1418.16 1218.59 1442 1224.92 1477.79 C 1231.26 1513.59 1207.31 1547.72 1171.49 1553.93 C 1135.85 1560.12 1101.91 1536.31 1095.61 1500.68 C 1089.3 1465.05 1113 1431.04 1148.6 1424.62 z"/>
  <path transform="translate(0,0)" fill="rgb(253,234,202)" d="M 1158.63 1454.61 C 1177.58 1453.75 1193.69 1468.31 1194.75 1487.25 C 1195.8 1506.19 1181.41 1522.45 1162.48 1523.7 C 1150.07 1524.52 1138.16 1518.61 1131.31 1508.22 C 1124.46 1497.82 1123.72 1484.55 1129.38 1473.47 C 1135.03 1462.38 1146.2 1455.18 1158.63 1454.61 z"/>
  <path transform="translate(0,0)" fill="rgb(231,201,165)" d="M 1324.57 1446.6 C 1332.94 1444.32 1341.89 1446.73 1347.99 1452.9 C 1354.09 1459.08 1356.4 1468.06 1354.01 1476.4 C 1351.63 1484.75 1344.94 1491.17 1336.5 1493.2 C 1323.72 1496.27 1310.84 1488.51 1307.58 1475.77 C 1304.32 1463.04 1311.88 1450.05 1324.57 1446.6 z"/>
  <path transform="translate(0,0)" fill="rgb(231,201,165)" d="M 358.808 1182.41 C 432.906 1255.87 502.083 1298 600.229 1332.56 C 606.887 1349.89 676.418 1424.22 693.486 1438.41 C 679.526 1466.86 677.722 1484.61 680.354 1515.72 C 644.815 1523.7 612.689 1530.95 576.757 1536.88 C 469.863 1443.54 393.855 1319.92 358.808 1182.41 z"/>
  <path transform="translate(0,0)" fill="rgb(117,109,160)" d="M 345.884 1251.42 C 347.433 1255.41 358.354 1283.15 358.847 1285.75 C 347.282 1288.57 306.541 1346.27 298.457 1359.13 C 265.351 1411.79 247.029 1484.44 311.791 1521.29 C 363.058 1549.55 433.172 1548.94 490.392 1546.8 C 504.7 1546.12 522.71 1545.34 536.105 1543.07 C 548.891 1540.46 563.129 1539.78 576.757 1536.88 C 612.689 1530.95 644.815 1523.7 680.354 1515.72 C 691.223 1512.74 702.119 1509.85 713.041 1507.07 C 714.358 1517.92 717.669 1528.43 722.808 1538.08 C 711.765 1540.96 700.691 1543.72 689.588 1546.36 C 663.207 1552.77 636.68 1558.56 610.028 1563.73 C 599.973 1565.44 576.108 1569.94 566.766 1569.92 C 466.521 1584.73 238.094 1598.86 238.529 1445.12 C 238.691 1387.64 280.516 1326.75 316.684 1284.53 C 325.766 1273.92 335.741 1261.12 345.884 1251.42 z"/>
  <path transform="translate(0,0)" fill="rgb(253,234,202)" d="M 982.136 335.758 C 993.945 334.087 1016.49 333.985 1028.56 334.061 C 1115.63 334.608 1192.29 350.583 1273.12 381.356 C 1243.69 387.064 1219.04 391.973 1190.3 401.433 C 1085.51 436.105 995.1 504.417 933.122 595.756 C 905.651 636.571 884.176 681.115 869.354 728.028 L 866.631 737.475 C 860.765 758.684 856.117 783.081 851.525 804.347 C 851.349 805.162 847.257 804.51 846.497 804.417 C 844.15 798.758 844.518 790.365 841.926 786.823 C 836.983 790.097 832.316 796.586 826.066 795.798 C 823.322 795.452 817.078 792.618 815.937 790.165 C 808.928 775.103 820.827 768.863 832.433 768.549 C 812.169 754.672 791.042 754.808 777.371 777.619 C 770.281 789.612 768.525 804.023 772.53 817.368 C 773.99 822.4 775.699 825.646 778.12 830.149 C 804.679 817.212 820.963 815.152 850.393 819.357 L 847.998 845.705 C 847.099 866.846 846.41 885.05 847.971 906.172 C 852.093 984.555 875.137 1054.79 911.039 1123.9 C 849.951 1124.21 796.385 1111.98 740.31 1087.22 C 725.679 1080.76 711.612 1105.74 725.396 1113.26 C 789.896 1148.48 880.874 1162.53 952.471 1152.61 C 1012.4 1144.3 1085.37 1118.12 1131.26 1082.23 C 1134.47 1074.85 1141.14 1052.8 1142.64 1043.38 C 1144.92 1028.98 1161.36 993.194 1169.94 1028.24 C 1176.87 1056.49 1192.05 1033.82 1207.64 1025.07 C 1226.45 1006.47 1276.24 987.598 1275.74 1031.45 C 1275.27 1073.07 1216.74 1136.55 1188.6 1164.81 C 1083.37 1270.13 940.853 1329.71 791.974 1330.62 C 722.701 1330.64 632.506 1316.22 569.154 1286.73 C 553.817 1281.01 534.433 1271.28 519.914 1263.61 C 450.754 1227.09 397.085 1181.02 347.194 1121.29 C 342.441 1090.75 339.762 1059.92 339.177 1029.01 C 336.935 848.446 406.02 674.285 531.428 544.352 C 631.675 439.957 762.41 369.994 904.88 344.498 C 927.62 340.548 959.07 336.235 982.136 335.758 z"/>
  <path transform="translate(0,0)" fill="rgb(231,201,165)" d="M 347.194 1121.29 C 342.441 1090.75 339.762 1059.92 339.177 1029.01 C 336.935 848.446 406.02 674.285 531.428 544.352 C 631.675 439.957 762.41 369.994 904.88 344.498 C 927.62 340.548 959.07 336.235 982.136 335.758 C 975.834 338.979 959.057 341.761 951.62 343.301 C 919.715 349.91 888.183 359.854 858.001 372.123 C 699.226 437.425 574.923 566.047 515.079 726.958 C 455.149 886.504 461.763 1063.43 533.436 1218.05 C 545.059 1243.65 557.72 1263.32 569.154 1286.73 C 553.817 1281.01 534.433 1271.28 519.914 1263.61 C 450.754 1227.09 397.085 1181.02 347.194 1121.29 z"/>
  <path transform="translate(0,0)" fill="rgb(231,201,165)" d="M 790.853 708.591 C 758.4 678.238 826.048 660.164 869.354 728.028 L 866.631 737.475 C 861.54 738.863 855.537 733.199 850.918 729.718 C 830.525 714.345 815.148 712.306 790.853 708.591 z"/>
  <path transform="translate(0,0)" fill="rgb(231,201,165)" d="M 847.998 845.705 C 847.099 866.846 846.41 885.05 847.971 906.172 C 786.316 901.085 790.921 847.722 847.998 845.705 z"/>
  <path transform="translate(0,0)" fill="rgb(231,201,165)" d="M 576.028 850.382 C 635.05 848.846 647.122 903.877 583.24 910.753 C 523.021 910.999 511.77 857.283 576.028 850.382 z"/>
  <path transform="translate(0,0)" fill="rgb(33,25,71)" d="M 657.938 910.014 C 661.064 909.745 664.511 909.582 667.526 910.603 C 671.584 911.978 675.633 915.237 679.235 917.6 C 692.232 926.124 705.125 932.447 720.996 932.682 C 752.297 933.145 766.427 910.72 779.428 910.086 C 783.327 909.896 787.442 911.508 790.245 914.225 C 792.483 916.409 793.7 919.434 793.599 922.559 C 793.278 930.444 789.958 933.791 784.609 938.734 C 744.608 969.258 691.361 971.275 652.527 933.233 C 644.831 925.695 649.794 915.546 657.938 910.014 z"/>
  <path transform="translate(0,0)" fill="rgb(33,25,71)" d="M 621.537 759.239 C 631.952 758.301 639.684 759.777 647.965 766.297 L 647.92 767.733 C 643.043 770.378 633.897 773.004 632.713 778.958 C 631.512 784.996 638.476 796.284 645.049 796.696 C 651.283 797.086 656.075 790.154 660.066 786.151 L 662.471 786.962 C 668.865 796.533 662.174 820.856 657.047 830.492 L 646.11 824.967 C 632.623 819.338 620.454 817.356 605.93 817.214 C 595.926 817.115 576.729 822.995 568.975 816.79 C 568.082 809.34 583.368 805.467 589.094 804.141 C 591.313 781.256 598.605 766.331 621.537 759.239 z"/>
  <path transform="translate(0,0)" fill="rgb(231,201,165)" d="M 1001.66 381.433 C 1012.67 379.362 1023.95 383.369 1031.19 391.925 C 1038.42 400.481 1040.5 412.266 1036.63 422.782 C 1032.76 433.298 1023.54 440.924 1012.48 442.748 C 995.652 445.525 979.72 434.241 976.755 417.442 C 973.79 400.642 984.896 384.585 1001.66 381.433 z"/>
  <path transform="translate(0,0)" fill="rgb(231,201,165)" d="M 633.127 680.409 C 644.073 681.172 651.251 684.961 650.386 696.998 C 649.43 710.299 636.511 709.387 626.607 710.941 C 605.565 714.244 590.93 721.954 574.526 735.296 C 569.775 739.703 564.911 741.006 561.109 734.655 C 559.973 721.985 581.438 703.898 591.002 697.273 C 603.49 688.622 618.024 682.347 633.127 680.409 z"/>
  <path transform="translate(0,0)" fill="rgb(231,201,165)" d="M 687.217 982.799 C 697.936 983.939 711.157 989.43 723.173 988.777 C 728.576 988.789 733.796 988.054 739.109 987.122 C 744.235 986.221 749.309 982.508 754.228 984.808 L 754.99 986.998 C 753.97 990.628 751.566 992.332 748.811 995.033 C 740.601 1001.07 731.745 1004.12 721.522 1003.91 C 708.898 1003.66 686.896 998.425 687.217 982.799 z"/>
  <path transform="translate(0,0)" fill="rgb(152,136,235)" d="M 1158.88 878.012 C 1172.83 875.86 1198.58 873.087 1210.92 867.902 C 1227.64 860.879 1235.18 819.013 1248.05 809.651 C 1260.8 807.833 1272.04 856.782 1286.37 866.022 C 1299.78 874.667 1347.89 874.673 1352.74 884.055 C 1352.66 890.225 1349.01 892.508 1345.11 896.715 C 1326.07 917.26 1304.21 925.449 1309.51 957.267 C 1311.53 961.718 1312.51 983.38 1315.08 989.943 C 1316.55 993.695 1316.23 999.866 1313.51 1003.84 C 1304.93 1008.56 1300.62 1001.51 1295.93 995.201 C 1265.89 954.775 1222.96 975.253 1192.81 996.718 L 1185.38 990.792 C 1187.44 974.211 1191.64 960.546 1191.86 942.962 C 1192.15 920.054 1142.17 897.133 1149.14 881.531 C 1152.21 878.667 1154.52 878.784 1158.88 878.012 z"/>
  <path transform="translate(0,0)" fill="rgb(117,109,160)" d="M 1185.38 990.792 C 1187.44 974.211 1191.64 960.546 1191.86 942.962 C 1192.15 920.054 1142.17 897.133 1149.14 881.531 C 1152.21 878.667 1154.52 878.784 1158.88 878.012 C 1170.55 893.989 1179.41 903.865 1198.04 911.29 C 1199.55 911.889 1199.56 919.451 1199.63 921.293 C 1207.69 922.222 1213.12 924.736 1214.63 915.723 C 1219.15 916.44 1223.18 917.068 1227.76 917.507 C 1229.44 924.468 1236.24 922.241 1242.75 921.981 L 1242.75 936.146 L 1256.95 936.225 C 1257.47 932.213 1257.29 926.115 1257.32 921.895 L 1272.16 921.94 L 1271.84 936.266 L 1272.21 937.328 C 1272.27 941.549 1272.22 946.325 1272.43 950.489 C 1272.81 946.09 1272.07 944.659 1274.44 942.245 C 1279.14 943.448 1282.91 949.536 1287.17 953.111 C 1289.44 958.141 1307.03 962.847 1309.51 957.267 C 1311.53 961.718 1312.51 983.38 1315.08 989.943 C 1316.55 993.695 1316.23 999.866 1313.51 1003.84 C 1304.93 1008.56 1300.62 1001.51 1295.93 995.201 C 1265.89 954.775 1222.96 975.253 1192.81 996.718 L 1185.38 990.792 z"/>
  <path transform="translate(0,0)" fill="rgb(125,108,198)" d="M 1257.32 921.895 L 1272.16 921.94 L 1271.84 936.266 L 1272.21 937.328 C 1272.27 941.549 1272.22 946.325 1272.43 950.489 C 1266.62 951.906 1263.61 951 1258.17 951.52 L 1257.73 953.277 L 1257.67 951.824 C 1256.59 946.663 1256.91 941.528 1256.95 936.225 C 1257.47 932.213 1257.29 926.115 1257.32 921.895 z"/>
  <path transform="translate(0,0)" fill="rgb(114,214,226)" d="M 1271.84 936.266 L 1272.21 937.328 C 1272.27 941.549 1272.22 946.325 1272.43 950.489 C 1266.62 951.906 1263.61 951 1258.17 951.52 C 1257.57 947.444 1257.71 940.677 1257.66 936.355 L 1271.84 936.266 z"/>
  <path transform="translate(0,0)" fill="rgb(114,214,226)" d="M 1257.67 951.824 L 1257.73 953.277 L 1257.58 965.962 L 1242.77 965.918 L 1242.73 951.262 C 1248.63 951.13 1251.7 951.015 1257.67 951.824 z"/>
  <path transform="translate(0,0)" fill="rgb(253,234,202)" d="M 1242.94 890.927 L 1257.25 890.949 L 1257.34 906.723 L 1272.21 906.744 L 1272.16 921.94 L 1257.32 921.895 C 1257.29 926.115 1257.47 932.213 1256.95 936.225 L 1242.75 936.146 L 1242.75 921.981 C 1236.24 922.241 1229.44 924.468 1227.76 917.507 C 1228.03 913.943 1228.28 910.377 1228.49 906.809 L 1242.92 906.668 L 1242.94 890.927 z"/>
  <path transform="translate(0,0)" fill="rgb(114,214,226)" d="M 1287.1 906.749 C 1291.51 906.754 1297.44 906.583 1301.71 907.002 C 1301.81 911.842 1302.05 917.079 1301.82 921.882 L 1287.12 921.812 L 1287.1 906.749 z"/>
  <path transform="translate(0,0)" fill="rgb(114,214,226)" d="M 1272.16 921.94 L 1287.12 921.812 L 1286.85 936.128 L 1271.84 936.266 L 1272.16 921.94 z"/>
  <path transform="translate(0,0)" fill="rgb(114,214,226)" d="M 1199.76 906.764 C 1203.73 906.551 1208.77 905.779 1212.22 907.328 C 1214.79 910.598 1214.02 910.832 1214.63 915.723 C 1213.12 924.736 1207.69 922.222 1199.63 921.293 L 1199.76 906.764 z"/>
  <path transform="translate(0,0)" fill="rgb(125,108,198)" d="M 1272.21 937.328 C 1277.26 936.132 1281.75 936.688 1286.96 936.928 L 1287.17 953.111 C 1282.91 949.536 1279.14 943.448 1274.44 942.245 C 1272.07 944.659 1272.81 946.09 1272.43 950.489 C 1272.22 946.325 1272.27 941.549 1272.21 937.328 z"/>
  <path transform="translate(0,0)" fill="rgb(114,214,226)" d="M 1245.25 861.438 L 1257.42 861.669 C 1257.51 865.858 1258.32 874.214 1255.83 877.169 C 1252.32 877.327 1247.22 878.117 1244.5 875.428 C 1240.81 871.782 1241.33 864.803 1245.25 861.438 z"/>
  <path transform="translate(0,0)" fill="rgb(114,214,226)" d="M 1272.24 880.943 L 1286.84 880.934 C 1287.07 885.383 1286.83 890.448 1286.73 894.951 C 1282.04 895.085 1276.91 894.961 1272.18 894.946 C 1272.14 890.279 1272.16 885.611 1272.24 880.943 z"/>
  <path transform="translate(0,0)" fill="rgb(114,214,226)" d="M 1287.99 940.147 L 1301.93 940.141 C 1302 944.634 1301.85 949.475 1301.79 954 L 1287.85 954.281 C 1287.73 949.205 1287.78 945.205 1287.99 940.147 z"/>
  <path transform="translate(0,0)" fill="rgb(231,201,165)" d="M 1161.63 949.774 C 1162.7 953.757 1158.29 977.007 1157.27 982.97 C 1118.17 988.53 1114.2 1029.8 1105.27 1061.93 C 1054.76 1095.3 1006.69 1111.97 947.334 1121.47 L 934.613 1098.4 C 926.201 1082.15 918.429 1065.57 911.315 1048.71 C 919.089 1048.95 926.868 1049.02 934.646 1048.91 C 1022.62 1047.53 1100.41 1012.81 1161.63 949.774 z"/>
  <path transform="translate(0,0)" fill="rgb(117,109,160)" d="M 1180.53 1317.16 C 1191.39 1311.68 1202.59 1306.97 1213.26 1300.87 C 1388.5 1200.73 1556.79 1086.16 1691.6 934.238 C 1745.59 873.401 1866.27 712.275 1729 669.058 C 1631.15 638.255 1495.68 677.314 1400.89 704.894 C 1378.01 711.552 1371.85 682.663 1390.36 675.691 C 1463.35 650.648 1535.53 631.244 1611.47 619.441 C 1906.3 573.616 1927.23 732.087 1749.73 926.214 C 1615.64 1072.87 1476.25 1177.32 1306.47 1280.36 C 1286.65 1292.39 1266.73 1304.24 1246.71 1315.92 C 1239.51 1320.14 1233.01 1324.11 1225.3 1327.63 C 1222.89 1328.73 1223.63 1329.75 1223.86 1331.54 C 1218.42 1331.05 1186.78 1348.33 1183.01 1352.3 C 1181.38 1352.2 1126.17 1380.66 1119.67 1383.89 C 1075.75 1405.65 1031.21 1426.16 986.124 1445.39 C 974.893 1450.18 929.251 1471.51 922.472 1467.08 C 889.518 1445.54 941.001 1430.67 948.597 1427.55 C 964.006 1421.17 979.346 1414.62 994.616 1407.91 C 1045.49 1385.67 1095.64 1361.8 1144.99 1336.35 C 1149.9 1334.47 1179.22 1319.63 1180.53 1317.16 z"/>
  <path transform="translate(0,0)" fill="rgb(117,109,160)" d="M 880.241 899.184 C 906.138 883.051 935.154 869.513 962.508 855.812 C 970.052 852.034 978.704 847.123 986.642 844.488 C 999.607 840.185 1010.45 851.651 1005.99 864.581 C 1004.27 869.571 996.248 873.206 991.85 875.784 C 965.08 888.903 938.675 902.888 912.404 916.982 C 906.77 920.011 888.742 929.485 884.16 933.152 C 880.665 928.404 880.284 906.05 880.241 899.184 z"/>
  <path transform="translate(0,0)" fill="rgb(114,214,226)" d="M 1063.92 725.796 C 1066.78 725.699 1069.85 725.456 1072.53 726.676 C 1078.79 729.529 1140.5 791.07 1141.64 796.261 C 1142.44 799.944 1139.83 802.921 1137.7 805.531 C 1134.68 806.252 1128.96 807.278 1126.87 804.858 C 1117.83 794.394 1061.32 742.276 1059.88 732.493 C 1060.29 729.138 1061.59 728.293 1063.92 725.796 z"/>
  <path transform="translate(0,0)" fill="rgb(114,214,226)" d="M 1414.05 906.42 L 1474.79 906.388 C 1484.38 906.392 1506.89 904.693 1513.83 910.201 C 1516.96 916.429 1515.06 920.069 1509.78 923.967 C 1479.88 924.563 1449.77 924.017 1419.86 924.292 C 1410.5 924.378 1406.89 919.925 1408.2 911.012 C 1409.63 908.158 1411.14 907.838 1414.05 906.42 z"/>
  <path transform="translate(0,0)" fill="rgb(114,214,226)" d="M 1363.77 1023.99 C 1373.67 1024.3 1382.54 1034.91 1389.27 1041.66 C 1404.74 1057.19 1420.37 1072.64 1435.48 1088.52 C 1441.56 1094.91 1442.73 1099.88 1435.51 1105.75 C 1432.93 1105.76 1430.44 1105.11 1428.22 1103.79 C 1418.89 1098.23 1360.87 1041.51 1359.87 1033.27 C 1359.37 1029.15 1361.25 1026.87 1363.77 1023.99 z"/>
  <path transform="translate(0,0)" fill="rgb(114,214,226)" d="M 990.243 907.25 C 992.727 907.063 1003.2 906.811 1005.33 907.049 C 1020.71 908.764 1082.12 903.066 1092.22 911.074 C 1095.18 917.565 1090.71 920.62 1085.69 923.804 C 1058.67 925.959 1026.27 923.506 998.82 924.003 C 992.932 924.11 984.228 921.328 984.369 914.043 C 986.5 910.164 986.716 910.071 990.243 907.25 z"/>
  <path transform="translate(0,0)" fill="rgb(114,214,226)" d="M 1430.89 724.981 C 1434.95 725.495 1434.84 725.357 1438.37 727.296 C 1443.05 734.4 1435.8 741.945 1430.43 746.27 C 1417.69 756.542 1380.75 801.707 1368.94 806.197 C 1364.42 805.428 1364.19 805.486 1360.96 802.563 C 1359.72 800.094 1359.36 798.535 1360.12 795.786 C 1361.79 789.727 1422.3 729.92 1430.89 724.981 z"/>
  <path transform="translate(0,0)" fill="rgb(114,214,226)" d="M 1245.54 649.726 C 1250.55 649.441 1252.7 649.301 1256.41 652.292 C 1258.27 655.023 1258.38 658.359 1258.35 661.672 C 1258.13 691.362 1259.06 721.264 1257.57 750.894 C 1257.46 752.951 1255.45 755.01 1254.13 756.424 C 1250.3 756.684 1249.69 756.781 1245.96 756.116 C 1244.4 754.883 1242.65 753.862 1242.55 751.121 C 1241.32 719.706 1242.08 687.217 1242.64 655.744 C 1242.68 653.541 1244.45 651.226 1245.54 649.726 z"/>
  <path transform="translate(0,0)" fill="rgb(114,214,226)" d="M 1335.69 696.696 C 1339.93 697.355 1340.69 697.23 1344.17 699.489 C 1345.66 702.026 1346.44 703.223 1345.61 706.681 C 1342.32 720.361 1325.51 763.924 1316.01 771.674 C 1311.74 771.271 1311.77 771.476 1308.18 769.361 C 1301.12 758.147 1325.63 714.874 1330.18 702.311 C 1330.72 700.839 1334.3 697.802 1335.69 696.696 z"/>
  <path transform="translate(0,0)" fill="rgb(114,214,226)" d="M 1039.5 820.055 C 1048.61 819.55 1106.18 843.28 1107.21 853.908 C 1106.08 857.475 1105.65 857.39 1102.7 859.616 C 1090.64 860.763 1034.17 840.587 1034.17 826.683 C 1035.45 822.854 1036.15 822.675 1039.5 820.055 z"/>
  <path transform="translate(0,0)" fill="rgb(114,214,226)" d="M 1174.96 733.621 C 1177.52 733.485 1181.66 733.426 1183.51 735.431 C 1191.3 743.887 1201.02 759.972 1192.54 770.371 C 1178.23 772.648 1174.77 758.189 1172.33 746.629 C 1171.14 740.983 1171.54 738.308 1174.96 733.621 z"/>
  <path transform="translate(0,0)" fill="rgb(114,214,226)" d="M 1398.88 969.97 C 1410.36 971.054 1437.87 978.591 1424.13 994.85 C 1413.47 994.304 1381.39 984.152 1398.88 969.97 z"/>
  <path transform="translate(0,0)" fill="rgb(114,214,226)" d="M 1418.92 836.188 C 1422.82 836.412 1425.26 837.478 1427.57 840.651 C 1430.83 853.589 1413.7 856.668 1404.03 860.612 C 1400.6 860.587 1396.15 860.52 1394.51 856.906 C 1388.99 844.722 1411.24 838.983 1418.92 836.188 z"/>
  <path transform="translate(0,0)" fill="rgb(114,214,226)" d="M 1457.24 819.082 C 1461.89 819.029 1466.51 819.993 1468.98 824.278 C 1470.47 834.253 1459.86 837.621 1452.6 839.792 C 1447.28 840.164 1444.73 840.487 1441.66 835.835 C 1440.92 826.634 1450.07 821.909 1457.24 819.082 z"/>
  <path transform="translate(0,0)" fill="rgb(114,214,226)" d="M 1448.44 990.952 C 1456.38 991.958 1468.05 995.316 1468.31 1004.97 C 1466.91 1008.79 1466.62 1008.85 1463.26 1011.4 C 1451.46 1010.32 1433.89 1004.33 1448.44 990.952 z"/>
  <path transform="translate(0,0)" fill="rgb(114,214,226)" d="M 1161.11 697.861 C 1174.71 698.576 1178.89 709.766 1168.32 718.385 C 1156.3 717.33 1149.92 706.325 1161.11 697.861 z"/>
</svg>
